<svg xmlns="http://www.w3.org/2000/svg" viewBox="0 0 774.2 800"><defs><style>.a{fill:#333;}.b{fill:#8fbe36;}</style></defs><title>discussion-01</title><path class="a" d="M413.13,95.92a51.62,51.62,0,1,0-52.07,0,64.53,64.53,0,0,0-38.48,58.92v12.9a12.9,12.9,0,0,0,12.91,12.91H374.2V271H400V180.64h38.71a12.9,12.9,0,0,0,12.9-12.9v-12.9A64.53,64.53,0,0,0,413.13,95.92Zm-26-70.11a25.81,25.81,0,1,1-25.81,25.8A25.82,25.82,0,0,1,387.1,25.81Zm-38.72,129a38.72,38.72,0,0,1,77.43,0Z"/><path class="a" d="M12.9,271H116.13A12.9,12.9,0,0,0,129,258.06v-1.7l134.78,89.86,14.3-21.47L124.68,222.46a64.66,64.66,0,0,0-34.14-36.22,51.61,51.61,0,1,0-52.06,0A64.53,64.53,0,0,0,0,245.16v12.9A12.9,12.9,0,0,0,12.9,271ZM64.51,116.13a25.81,25.81,0,1,1-25.8,25.81A25.83,25.83,0,0,1,64.51,116.13Zm0,90.32a38.76,38.76,0,0,1,38.72,38.71H25.8A38.76,38.76,0,0,1,64.51,206.45Z"/><path class="a" d="M735.71,186.24a51.62,51.62,0,1,0-52.07,0,64.66,64.66,0,0,0-34.14,36.22L496.07,324.75l14.3,21.47,134.79-89.86v1.7A12.9,12.9,0,0,0,658.07,271H761.29a12.9,12.9,0,0,0,12.91-12.91v-12.9A64.55,64.55,0,0,0,735.71,186.24Zm-26-70.11a25.81,25.81,0,1,1-25.8,25.81A25.83,25.83,0,0,1,709.67,116.13Zm-38.7,129a38.71,38.71,0,0,1,77.42,0Z"/><path class="a" d="M735.71,547.53a51.62,51.62,0,1,0-52.07,0,64.77,64.77,0,0,0-19.11,13L510.58,453.91l-14.7,21.22,154.2,106.75a64,64,0,0,0-4.92,24.57v12.9a12.9,12.9,0,0,0,12.91,12.91H761.29a12.9,12.9,0,0,0,12.91-12.91v-12.9A64.55,64.55,0,0,0,735.71,547.53Zm-26-70.11a25.81,25.81,0,1,1-25.8,25.81A25.83,25.83,0,0,1,709.67,477.42Zm-38.7,129a38.71,38.71,0,0,1,77.42,0Z"/><path class="a" d="M413.13,715.28A51.28,51.28,0,0,0,400,621.19V529H374.19v92.16a51.28,51.28,0,0,0-13.13,94.09,64.5,64.5,0,0,0-38.48,58.91V787.1a12.89,12.89,0,0,0,12.9,12.9H438.71a12.89,12.89,0,0,0,12.9-12.9V774.19A64.5,64.5,0,0,0,413.13,715.28Zm-26-70.12A25.81,25.81,0,1,1,361.29,671,25.83,25.83,0,0,1,387.1,645.16Zm-38.72,129a38.72,38.72,0,0,1,77.43,0Z"/><path class="a" d="M263.62,453.91,109.67,560.49a64.5,64.5,0,0,0-19.1-13,51.63,51.63,0,1,0-52.09,0A64.5,64.5,0,0,0,0,606.45v12.9a12.9,12.9,0,0,0,12.9,12.91H116.13A12.9,12.9,0,0,0,129,619.35v-12.9a64.19,64.19,0,0,0-4.91-24.57L278.31,475.13ZM64.51,477.42a25.81,25.81,0,1,1-25.8,25.81A25.83,25.83,0,0,1,64.51,477.42Zm-38.71,129a38.72,38.72,0,0,1,77.43,0Z"/><path class="b" d="M387.1,541.93c-78.26,0-141.94-63.67-141.94-141.93S308.84,258.06,387.1,258.06,529,321.74,529,400,465.35,541.93,387.1,541.93Z"/><path class="a" d="M413.13,392.69a51.62,51.62,0,1,0-52.07,0,64.53,64.53,0,0,0-38.48,58.92v12.9a12.9,12.9,0,0,0,12.91,12.91H438.71a12.9,12.9,0,0,0,12.91-12.91v-12.9A64.55,64.55,0,0,0,413.13,392.69Zm-26-70.11a25.81,25.81,0,1,1-25.81,25.81A25.83,25.83,0,0,1,387.1,322.58Zm-38.72,129a38.72,38.72,0,0,1,77.43,0Z"/></svg>