<?xml version="1.0" encoding="utf-8"?>
<!-- Generator: Adobe Illustrator 22.1.0, SVG Export Plug-In . SVG Version: 6.00 Build 0)  -->
<svg version="1.1" id="Layer_1_1_" xmlns="http://www.w3.org/2000/svg" xmlns:xlink="http://www.w3.org/1999/xlink" x="0px" y="0px"
	 viewBox="0 0 512 512" style="enable-background:new 0 0 512 512;" xml:space="preserve">
<style type="text/css">
	.st0{fill:#8FBE36;}
	.st1{fill:#333333;}
</style>
<g>
	<g>
		<g>
			<polygon class="st0" points="304,432 292.6,384.7 396.6,336.7 440,368 			"/>
		</g>
		<g>
			<path class="st0" d="M168,112H8v-8c0-22.1,17.9-40,40-40h120V112z"/>
		</g>
		<g>
			<path class="st0" d="M168,176H48c-22.1,0-40-17.9-40-40v-8h160V176z"/>
		</g>
		<g>
			<path class="st0" d="M200,431.3v-46.6l-20.1-1.8c-1.2-3.7-2.7-7.3-4.5-10.8l12.9-15.5l-33-33l-15.5,12.9
				c-3.5-1.8-7.1-3.2-10.8-4.5l-1.8-20.1H80.7l-1.8,20.1c-3.7,1.2-7.3,2.7-10.8,4.5l-15.5-12.9l-33,33l12.9,15.5
				c-1.8,3.5-3.2,7.1-4.5,10.8L8,384.7v46.6l20.1,1.8c1.2,3.7,2.7,7.3,4.5,10.8l-12.9,15.5l33,33l15.5-12.9
				c3.5,1.8,7.1,3.2,10.8,4.5l1.8,20.1h46.6l1.8-20.1c3.7-1.2,7.3-2.7,10.8-4.5l15.5,12.9l33-33l-12.9-15.5
				c1.8-3.5,3.2-7.1,4.5-10.8L200,431.3z M104,448c-22.1,0-40-17.9-40-40s17.9-40,40-40s40,17.9,40,40S126.1,448,104,448z"/>
		</g>
		<g>
			<polygon class="st1" points="280,272 264,272 264,288 248,288 248,304 264,304 264,320 280,320 280,304 296,304 296,288 280,288 
							"/>
			<path class="st1" d="M504,160V80h-40V49.9L484.9,8h-89.9L416,49.9V80h-20.4c-5.6-9.5-15.8-16-27.6-16H240c-17.6,0-32,14.4-32,32
				H96v48h112c0,17.6,14.4,32,32,32h5.1l-26.5,84.8C211.9,270.9,208,283,208,296c0,35.3,28.7,64,64,64c3.2,0,6.2-0.3,9.3-0.8
				l13,64.8h-11.2l-16,32H248v48h256v-48h-19.1l-16-32H456v-60.5l-118.8-71.3l29-116.2h1.8c11.8,0,22-6.5,27.6-16H416v22.1
				L395.1,224h89.9L464,182.1V160H504z M112,128v-16h96v16H112z M224,296c0-26.5,21.5-48,48-48s48,21.5,48,48s-21.5,48-48,48
				S224,322.5,224,296z M334.6,309.3l96.1,57.7l-120.8,53.7L296.8,355C315.8,347,330.2,330,334.6,309.3z M488,488H264v-16h224V488z
				 M467.1,456H284.9l8-16h166.1L467.1,456z M341.7,424l98.3-43.7V424H341.7z M327.6,264.5c-11-19.4-31.8-32.5-55.6-32.5
				c-10.8,0-21,2.7-30,7.5l19.8-63.5h87.9L327.6,264.5z M384,144c0,8.8-7.2,16-16,16H240c-8.8,0-16-7.2-16-16V96c0-8.8,7.2-16,16-16
				h128c8.8,0,16,7.2,16,16V144z M459.1,24l-8,16h-22.1l-8-16H459.1z M432,56h16v24h-16V56z M488,96v16h-88V96H488z M400,128h88v16
				h-88V128z M420.9,208l8-16h22.1l8,16H420.9z M448,176h-16v-16h16V176z"/>
			<path class="st1" d="M272,96c-13.2,0-24,10.8-24,24s10.8,24,24,24s24-10.8,24-24S285.2,96,272,96z M272,128c-4.4,0-8-3.6-8-8
				s3.6-8,8-8s8,3.6,8,8S276.4,128,272,128z"/>
			<path class="st1" d="M336,96c-13.2,0-24,10.8-24,24s10.8,24,24,24s24-10.8,24-24S349.2,96,336,96z M336,128c-4.4,0-8-3.6-8-8
				s3.6-8,8-8s8,3.6,8,8S340.4,128,336,128z"/>
			<path class="st1" d="M104,360c-26.5,0-48,21.5-48,48s21.5,48,48,48s48-21.5,48-48S130.5,360,104,360z M104,440
				c-17.6,0-32-14.4-32-32s14.4-32,32-32s32,14.4,32,32S121.6,440,104,440z"/>
			<rect x="96" y="192" class="st1" width="16" height="16"/>
			<rect x="96" y="224" class="st1" width="16" height="16"/>
			<rect x="96" y="256" class="st1" width="16" height="16"/>
		</g>
	</g>
</g>
</svg>
