<?xml version="1.0"?>
<svg xmlns="http://www.w3.org/2000/svg" xmlns:xlink="http://www.w3.org/1999/xlink" version="1.1" id="Capa_1" x="0px" y="0px" viewBox="0 0 496 496" style="enable-background:new 0 0 496 496;" xml:space="preserve" width="512px" height="512px" class=""><g><path style="fill:#8FBE36" d="M264,112H96H40v56v168v56h56h168h56v-56V168v-56H264z M264,336H96V168h168V336z" data-original="#FFCB57" class="active-path" data-old_color="#FFCB57"/><path style="fill:#8FBE36" d="M420,176c-19.848,0-36-16.152-36-36s16.152-36,36-36s36,16.152,36,36S439.848,176,420,176z M420,120  c-11.024,0-20,8.976-20,20s8.976,20,20,20s20-8.976,20-20S431.024,120,420,120z" data-original="#E56565" class="" data-old_color="##8FBE3"/><g>
	<path style="fill:#333333" d="M0,456c0,22.056,17.944,40,40,40h248c22.056,0,40-17.944,40-40v-40H0V456z M16,432h296v24   c0,13.232-10.768,24-24,24H40c-13.232,0-24-10.768-24-24V432z" data-original="#3F3A34" class="" data-old_color="#3F3A34"/>
	<rect x="128" y="448" style="fill:#333333" width="72" height="16" data-original="#3F3A34" class="" data-old_color="#3F3A34"/>
	<path style="fill:#333333" d="M288,0H40C17.944,0,0,17.944,0,40v360h16V64h296h8h8V40C328,17.944,310.056,0,288,0z M16,48v-8   c0-13.232,10.768-24,24-24h248c13.232,0,24,10.768,24,24v8H16z" data-original="#3F3A34" class="" data-old_color="#3F3A34"/>
	<path style="fill:#333333" d="M32,400h296V104H32V400z M48,344h40v40H48V344z M256,176v152H104V176H256z M104,344h40v40h-40V344z    M160,344h40v40h-40V344z M216,344h40v40h-40V344z M272,288h40v40h-40V288z M272,272v-40h40v40H272z M272,216v-40h40v40H272z    M256,160h-40v-40h40V160z M200,160h-40v-40h40V160z M144,160h-40v-40h40V160z M88,216H48v-40h40V216z M88,232v40H48v-40H88z    M88,288v40H48v-40H88z M272,384v-40h40v40H272z M312,160h-40v-40h40V160z M88,120v40H48v-40H88z" data-original="#3F3A34" class="" data-old_color="#3F3A34"/>
	<path style="fill:#333333" d="M456,64h-72c-22.056,0-40,17.944-40,40v72c0,22.056,17.944,40,40,40h72c22.056,0,40-17.944,40-40   v-72C496,81.944,478.056,64,456,64z M480,176c0,13.232-10.768,24-24,24h-72c-13.232,0-24-10.768-24-24v-72   c0-13.232,10.768-24,24-24h72c13.232,0,24,10.768,24,24V176z" data-original="#3F3A34" class="" data-old_color="#3F3A34"/>
	<path style="fill:#333333" d="M456,248h-72c-22.056,0-40,17.944-40,40v72c0,22.056,17.944,40,40,40h72c22.056,0,40-17.944,40-40   v-72C496,265.944,478.056,248,456,248z M480,360c0,13.232-10.768,24-24,24h-72c-13.232,0-24-10.768-24-24v-72   c0-13.232,10.768-24,24-24h72c13.232,0,24,10.768,24,24V360z" data-original="#3F3A34" class="" data-old_color="#3F3A34"/>
</g><g>
	<path style="fill:#8FBE36" d="M392,376c-13.232,0-24-10.768-24-24s10.768-24,24-24s24,10.768,24,24S405.232,376,392,376z M392,344   c-4.408,0-8,3.584-8,8s3.592,8,8,8s8-3.584,8-8S396.408,344,392,344z" data-original="#E56565" class="" data-old_color="##8FBE3"/>
	<path style="fill:#8FBE36" d="M448,320c-13.232,0-24-10.768-24-24s10.768-24,24-24s24,10.768,24,24S461.232,320,448,320z M448,288   c-4.408,0-8,3.584-8,8s3.592,8,8,8s8-3.584,8-8S452.408,288,448,288z" data-original="#E56565" class="" data-old_color="##8FBE3"/>
</g></g> </svg>
