<?xml version="1.0"?>
<svg xmlns="http://www.w3.org/2000/svg" xmlns:xlink="http://www.w3.org/1999/xlink" version="1.1" id="Capa_1" x="0px" y="0px" viewBox="0 0 496 496" style="enable-background:new 0 0 496 496;" xml:space="preserve" width="512px" height="512px" class=""><g><g>
	<rect x="48" y="464" style="fill:#8FBE36" width="48" height="16" data-original="#E56565" class="" data-old_color="#E56565"/>
	<rect x="48" y="432" style="fill:#8FBE36" width="48" height="16" data-original="#E56565" class="" data-old_color="#E56565"/>
</g><path style="fill:#8FBE36" d="M338.352,71.8c-0.808,0.08-1.52,0.112-2.352,0.2c0,0-32,8-88,8s-88-8-88-8  c-0.832-0.088-1.544-0.12-2.352-0.2C154.056,81.88,152,92.688,152,104v16c0,0,40,56,96,56s96-56,96-56v-16  C344,92.688,341.944,81.88,338.352,71.8z" data-original="#FFCB57" class="" data-old_color="#FFCB57"/><g>
	<rect x="400" y="464" style="fill:#8FBE36" width="48" height="16" data-original="#E56565" class="" data-old_color="#E56565"/>
	<rect x="400" y="432" style="fill:#8FBE36" width="48" height="16" data-original="#E56565" class="" data-old_color="#E56565"/>
</g><polygon style="fill:#8FBE36" points="376,288 312,272 312,320 264,368 248,368 232,368 184,320 184,272 120,288 104,416 120,440   160,440 176,488 320,488 336,440 376,440 392,416 " data-original="#FFCB57" class="" data-old_color="#FFCB57"/><g>
	<path style="fill:#333333" d="M200.968,252.288c7.552,7.552,17.6,11.712,28.28,11.712h37.496c10.688,0,20.728-4.16,28.28-11.712   l31.2-31.2C342.848,204.464,352,182.368,352,158.864V104C352,46.656,305.344,0,248,0S144,46.656,144,104v54.864   c0,23.504,9.152,45.6,25.768,62.224L200.968,252.288z M160,104c0-8.016,1.168-15.744,3.184-23.128C174.4,83.128,203.72,88,248,88   c44.288,0,73.616-4.872,84.816-7.128c2.016,7.384,3.192,15.112,3.192,23.128v13.288C328.712,126.608,293.76,168,248,168   c-45.584,0-80.656-41.352-88-50.704V104z M248,16c34.768,0,64.808,20.328,79.096,49.672C315.008,67.912,287.56,72,248,72   s-67-4.088-79.088-6.328C183.192,36.328,213.232,16,248,16z M160,141.448C177.232,159.016,208.592,184,248,184   c39.416,0,70.784-24.992,88.008-42.56v17.424c0,19.232-7.488,37.312-21.088,50.912l-31.2,31.2   c-4.472,4.464-10.648,7.024-16.968,7.024h-37.496c-6.32,0-12.504-2.56-16.968-7.024l-31.2-31.2   c-13.6-13.6-21.088-31.68-21.088-50.912L160,141.448L160,141.448z" data-original="#3F3A34" class="active-path" data-old_color="#3F3A34"/>
	<path style="fill:#333333" d="M40,360v-21.624c0-20.136,15.064-37.2,35.04-39.696l21.952-2.744l-1.984-15.872l-21.952,2.744   C45.088,286.304,24,310.192,24,338.376V360c0,15.216,6.12,29.016,16,39.12V496h16v-85.48C63.288,414,71.4,416,80,416v-16   C57.944,400,40,382.056,40,360z" data-original="#3F3A34" class="active-path" data-old_color="#3F3A34"/>
	<path style="fill:#333333" d="M248,104c-13.496,0-26.752-0.48-39.408-1.416l-1.184,15.952C220.456,119.504,234.112,120,248,120   V104z" data-original="#3F3A34" class="active-path" data-old_color="#3F3A34"/>
	<path style="fill:#333333" d="M192.88,101.136c-6.064-0.664-11.296-1.376-15.656-2.048l-2.44,15.816   c4.544,0.704,10.008,1.448,16.344,2.144L192.88,101.136z" data-original="#3F3A34" class="active-path" data-old_color="#3F3A34"/>
	<path style="fill:#333333" d="M320,265.752V256h-16v22.248l64.744,16.184l14.944,119.608L371.72,432h-41.488l-16,48H181.768   l-16-48H124.28l-11.968-17.96l14.944-119.608L192,278.248V256h-16v9.752l-63.256,15.816L95.688,417.96L112,442.424V496h272v-53.576   l16.312-24.464l-17.056-136.392L320,265.752z M128,448h26.232l10.664,32H128V448z M331.104,480l10.664-32H368v32H331.104z" data-original="#3F3A34" class="active-path" data-old_color="#3F3A34"/>
	<path style="fill:#333333" d="M472,338.376c0-28.192-21.088-52.072-49.056-55.56l-21.952-2.744l-1.984,15.872l21.952,2.744   c19.976,2.496,35.04,19.552,35.04,39.688V360c0,22.056-17.944,40-40,40v16c8.6,0,16.712-2,24-5.48V496h16v-96.88   c9.88-10.104,16-23.904,16-39.12V338.376z" data-original="#3F3A34" class="active-path" data-old_color="#3F3A34"/>
	<polygon style="fill:#333333" points="176,296 176,323.312 228.688,376 267.312,376 320,323.312 320,296 304,296 304,316.688    260.688,360 235.312,360 192,316.688 192,296  " data-original="#3F3A34" class="active-path" data-old_color="#3F3A34"/>
</g><g>
	<path style="fill:#8FBE36" d="M400,128c-17.648,0-32-14.352-32-32s14.352-32,32-32s32,14.352,32,32S417.648,128,400,128z M400,80   c-8.824,0-16,7.176-16,16s7.176,16,16,16s16-7.176,16-16S408.824,80,400,80z" data-original="#E56565" class="" data-old_color="#E56565"/>
	<rect x="392" y="144" style="fill:#8FBE36" width="16" height="32" data-original="#E56565" class="" data-old_color="#E56565"/>
	<rect x="392" y="192" style="fill:#8FBE36" width="16" height="16" data-original="#E56565" class="" data-old_color="#E56565"/>
	<path style="fill:#8FBE36" d="M96,208c-17.648,0-32-14.352-32-32s14.352-32,32-32s32,14.352,32,32S113.648,208,96,208z M96,160   c-8.824,0-16,7.176-16,16s7.176,16,16,16s16-7.176,16-16S104.824,160,96,160z" data-original="#E56565" class="" data-old_color="#E56565"/>
	<rect x="88" y="96" style="fill:#8FBE36" width="16" height="32" data-original="#E56565" class="" data-old_color="#E56565"/>
	<rect x="88" y="64" style="fill:#8FBE36" width="16" height="16" data-original="#E56565" class="" data-old_color="#E56565"/>
</g></g> </svg>
