<?xml version="1.0"?>
<svg xmlns="http://www.w3.org/2000/svg" xmlns:xlink="http://www.w3.org/1999/xlink" version="1.1" id="Capa_1" x="0px" y="0px" viewBox="0 0 496 496" style="enable-background:new 0 0 496 496;" xml:space="preserve" width="512px" height="512px" class=""><g><g>
	<path style="fill:#8FBE36" d="M80.488,306.376L72,300.648C48.544,310.144,32,333.144,32,360c0,35.344,28.656,64,64,64   s64-28.656,64-64h-40L80.488,306.376z" data-original="#FFCB57" class="" data-old_color="#FFCB57"/>
	<circle style="fill:#8FBE36" cx="392" cy="360" r="64" data-original="#FFCB57" class="" data-old_color="#FFCB57"/>
</g><g>
	<path style="fill:#8FBE36" d="M256,344h-16v-20.888c0-11.784-8.432-21.736-20.056-23.672l-55.888-9.32   C152.432,288.184,144,278.224,144,266.448V240h16v26.448c0,3.928,2.816,7.248,6.688,7.888l55.888,9.32   C241.944,286.88,256,303.472,256,323.112V344z" data-original="#E56565" class="" data-old_color="#E56565"/>
	<path style="fill:#8FBE36" d="M160,184h-16v-24c0-8.824-7.176-16-16-16s-16,7.176-16,16v16H96v-16c0-17.648,14.352-32,32-32   s32,14.352,32,32V184z" data-original="#E56565" class="" data-old_color="#E56565"/>
</g><g>
	<path style="fill:#333333" d="M392,392c17.648,0,32-14.352,32-32s-14.352-32-32-32s-32,14.352-32,32S374.352,392,392,392z    M392,344c8.824,0,16,7.176,16,16c0,8.824-7.176,16-16,16s-16-7.176-16-16C376,351.176,383.176,344,392,344z" data-original="#3F3A34" class="active-path" data-old_color="#3F3A34"/>
	<path style="fill:#333333" d="M437.296,158.576l-174-84.192C249.256,67.592,233.6,64,218,64H62.632   c-16.736,0-32.456,6.512-44.288,18.344S0,109.904,0,126.632v84l16,21.712V304h16v-49.944l31.04,42.128   C39.192,308.472,24,332.752,24,360c0,39.696,32.304,72,72,72c36.992,0,67.528-28.056,71.528-64h152.944   c4,35.944,34.536,64,71.528,64c39.696,0,72-32.304,72-72s-32.304-72-72-72c-36.992,0-67.528,28.056-71.528,64h-15.824   c-0.232-0.04-0.52-0.08-0.896-0.144c-1.528-37.328-13.104-66.048-22.264-83.104l35.152,5.208l-19.016-47.088L33.272,184.096   l-2.552,15.8l255.448,41.32l5.176,12.816L77.336,222.328l2.904,11.608c0.688,2.76,17.48,67.864,68.184,93.216   c19.632,9.816,47.912,18.24,74.92,24.848H124.04L16,205.376v-78.744c0-12.464,4.848-24.168,13.656-32.976S50.176,80,62.632,80H218   c13.192,0,26.448,3.04,38.328,8.784l174,84.192C460.504,187.584,480,218.672,480,252.192v47.592   c-7.752-10.592-16.616-20.248-26.568-28.672c4.224-1.096,8.128-3.208,11.296-6.376c4.688-4.688,7.272-10.928,7.272-17.952   c0-9.248-4.864-17.408-12.352-21.84l0.024-0.048L232.384,107.584C217.696,100,201.2,96,184.688,96H91.272   C67.416,96,48,115.416,48,139.272c0,10.344,4.04,20.08,11.584,27.624c5.616,5.616,12.728,9.264,20.56,10.544l368.104,60.088   c4.496,0.736,7.752,4.632,7.752,9.648c0,2.36-0.92,4.576-2.592,6.24c-1.664,1.664-3.872,2.584-6.232,2.584h-14.944   c-12.968-7.848-26.96-14.12-41.848-18.184C376.248,233.96,361.64,232,346.976,232H328v64h16v-48h2.976   c13.24,0,26.432,1.768,39.2,5.248c40.672,11.096,74.848,39.016,93.824,76.64V368h16v-40v-1.888v-73.92   C496,212.584,472.96,175.832,437.296,158.576z M96,416c-30.88,0-56-25.12-56-56c0-22.056,12.776-41.64,32.656-50.768l14.792,20.08   C73.968,333.072,64,345.336,64,360c0,17.648,14.352,32,32,32c14.872,0,27.288-10.232,30.864-24h24.496   C147.456,395.096,124.16,416,96,416z M111.768,362.312C110.64,370.032,104.032,376,96,376c-8.824,0-16-7.176-16-16   c0-8.824,7.176-16,16-16c0.816,0,1.624,0.08,2.424,0.2L111.768,362.312z M392,304c30.88,0,56,25.12,56,56s-25.12,56-56,56   s-56-25.12-56-56S361.12,304,392,304z M99.568,241.8l161.472,23.92c7.224,11.048,24.064,40.984,26.624,83.376   c-31.464-5.656-97.432-18.928-132.096-36.264C123.496,296.808,106.504,260.568,99.568,241.8z M82.712,161.648   c-4.504-0.744-8.584-2.84-12.024-6.272C66.376,151.064,64,145.344,64,139.272C64,124.232,76.232,112,91.272,112h93.416   c13.976,0,27.928,3.392,40.36,9.8L403.8,214.064L82.712,161.648z" data-original="#3F3A34" class="active-path" data-old_color="#3F3A34"/>
</g></g> </svg>
