<svg xmlns="http://www.w3.org/2000/svg" viewBox="0 0 500 500"><defs><style>.a{fill:#f5a205;}.b{fill:#333;}</style></defs><title>gallery</title><path class="a" d="M204.22,330.65h0A68,68,0,0,1,254,352.37l21,22.63L303,348.94a68,68,0,0,1,46.4-18.29h0c1.68,0,3.34.13,5,.25a80.63,80.63,0,1,0-160.83-8.32,84.28,84.28,0,0,0,.48,8.9A69.22,69.22,0,0,1,204.22,330.65Z"/><path class="b" d="M486.27,161.29,281.78,27.59a32.1,32.1,0,0,0-63.56,0L13.73,161.29H0V500H500V161.29ZM250,16.13a16.13,16.13,0,1,1-16.13,16.13A16.14,16.14,0,0,1,250,16.13ZM220.56,45.32a32.17,32.17,0,0,0,58.88,0l177.37,116H43.19ZM483.87,483.87H16.13V177.42H483.87Z"/><path class="b" d="M451.61,209.68H48.39V451.61H451.61Zm-16.13,16.13V379.59l-30.37-32.7A76.06,76.06,0,0,0,297.48,343l-22,20.55L260,346.88A76.08,76.08,0,0,0,152.31,343L64.52,425V225.81ZM342.23,435.48l-19.3-20.78-11.82,11,9.11,9.8H76.92l86.41-80.65a59.93,59.93,0,0,1,84.81,3l52.75,56.81,11.81-11-26.26-28.28,22-20.58a59.94,59.94,0,0,1,84.82,3l42.18,45.43v32.19Z"/></svg>