<?xml version="1.0" encoding="utf-8"?>
<!-- Generator: Adobe Illustrator 23.0.0, SVG Export Plug-In . SVG Version: 6.00 Build 0)  -->
<svg version="1.1" id="Capa_1" xmlns="http://www.w3.org/2000/svg" xmlns:xlink="http://www.w3.org/1999/xlink" x="0px" y="0px"
	 viewBox="0 0 512 512" style="enable-background:new 0 0 512 512;" xml:space="preserve">
<style type="text/css">
	.st0{fill:#F5A205;}
	.st1{fill:#333333;}
</style>
<g>
	<g>
		<path class="st0" d="M115.6,137.2V27.9l109.3,54.7L115.6,137.2z"/>
		<path class="st0" d="M462.5,189.9h-99.1v-82.6h99.1V189.9z"/>
		<path class="st0" d="M462.5,355.1h-99.1v-82.6h99.1V355.1z"/>
	</g>
	<path class="st1" d="M470.7,66.1H289V0H41.3v66.1C18.5,66.1,0,84.6,0,107.4v313.8c0,22.8,18.5,41.3,41.3,41.3h99.1v33h-33V512
		h297.3v-16.5h-33v-33h99.1c22.8,0,41.3-18.5,41.3-41.3V107.4C512,84.6,493.5,66.1,470.7,66.1z M495.5,107.4v272.5H330.3V82.6h140.4
		C484.4,82.6,495.5,93.7,495.5,107.4z M272.5,16.5v132.1H57.8V16.5H272.5z M57.8,165.2h214.7v82.6H57.8V165.2z M41.3,82.6v181.7H289
		V82.6h24.8v297.3H16.5V107.4C16.5,93.7,27.6,82.6,41.3,82.6z M355.1,495.5H156.9v-33h198.2V495.5z M470.7,445.9H41.3
		c-13.7,0-24.8-11.1-24.8-24.8v-24.8h479v24.8C495.5,434.8,484.4,445.9,470.7,445.9z"/>
	<polygon class="st1" points="181.7,181.7 165.2,181.7 165.2,198.2 74.3,198.2 74.3,214.7 165.2,214.7 165.2,231.2 181.7,231.2 
		181.7,214.7 256,214.7 256,198.2 181.7,198.2 	"/>
	<rect x="363.4" y="206.5" class="st1" width="99.1" height="16.5"/>
	<rect x="445.9" y="239.5" class="st1" width="16.5" height="16.5"/>
	<rect x="363.4" y="239.5" class="st1" width="66.1" height="16.5"/>
	<rect x="41.3" y="280.8" class="st1" width="247.7" height="16.5"/>
	<rect x="272.5" y="346.8" class="st1" width="16.5" height="16.5"/>
	<rect x="41.3" y="346.8" class="st1" width="214.7" height="16.5"/>
	<polygon class="st1" points="156.9,330.3 156.9,313.8 76.7,313.8 41.3,313.8 41.3,330.3 76.7,330.3 	"/>
	<rect x="173.4" y="313.8" class="st1" width="115.6" height="16.5"/>
	<rect x="33" y="412.9" class="st1" width="16.5" height="16.5"/>
	<rect x="66.1" y="412.9" class="st1" width="16.5" height="16.5"/>
	<rect x="99.1" y="412.9" class="st1" width="16.5" height="16.5"/>
</g>
</svg>
