<?xml version="1.0"?>
<svg xmlns="http://www.w3.org/2000/svg" height="512px" viewBox="0 0 496 496" width="512px" class=""><g><path d="m432 176h-92.800781v16h12.800781v144h-208v-80h56v-16h-72v112h240v-160h48v160h64v48h-16v16h16v64h-48v-64h16v-16h-32v80h-48v-80h-240v80h-48v-80h-64v-48h64v-112h-32v16h16v80h-48v-80h16v-16h-16v-48h140.800781v-16h-156.800781v320h496v-320zm-416 240h48v64h-48zm336 64h-208v-64h208zm128-144h-48v-144h48zm0 0" data-original="#000000" class=""/><path d="m248 320c-7.734375 0-14.855469-3.863281-19.070312-10.351562l-81.699219-125.679688c-12.582031-19.359375-19.230469-41.800781-19.230469-64.898438 0-65.65625 53.414062-119.070312 119.070312-119.070312h1.859376c65.65625 0 119.070312 53.414062 119.070312 119.070312 0 23.097657-6.648438 45.539063-19.230469 64.898438l-81.699219 125.679688c-4.214843 6.488281-11.335937 10.351562-19.070312 10.351562zm0 0" fill="#f0bc5e" data-original="#F0BC5E" class="active-path" style="fill:#F5A205" data-old_color="#F0BC5E"/><path d="m248 192c-39.695312 0-72-32.304688-72-72s32.304688-72 72-72 72 32.304688 72 72-32.304688 72-72 72zm0-128c-30.878906 0-56 25.121094-56 56s25.121094 56 56 56 56-25.121094 56-56-25.121094-56-56-56zm0 0" data-original="#000000" class=""/><path d="m240 112h16v16h-16zm0 0" data-original="#000000" class=""/><path d="m272 112h16v16h-16zm0 0" data-original="#000000" class=""/><path d="m208 112h16v16h-16zm0 0" data-original="#000000" class=""/></g> </svg>
