<?xml version="1.0" encoding="utf-8"?>
<!-- Generator: Adobe Illustrator 22.1.0, SVG Export Plug-In . SVG Version: 6.00 Build 0)  -->
<svg version="1.1" id="Capa_1" xmlns="http://www.w3.org/2000/svg" xmlns:xlink="http://www.w3.org/1999/xlink" x="0px" y="0px"
	 viewBox="0 0 512 512" style="enable-background:new 0 0 512 512;" xml:space="preserve">
<style type="text/css">
	.st0{fill:#F5A205;}
	.st1{fill:#333333;}
</style>
<g>
	<g>
		<path class="st0" d="M148.6,223l22.8-22.8c6.6-6.6,15.5-10.3,24.8-10.3l0,0c19.4,0,35,15.7,35,35l0,0c0,9.3-3.7,18.2-10.3,24.8
			l-72.3,72.3l-72.3-72.3c-6.6-6.6-10.3-15.5-10.3-24.8l0,0c0-19.4,15.7-35,35-35l0,0c9.3,0,18.2,3.7,24.8,10.3L148.6,223z"/>
		<path class="st0" d="M445.9,322.1c-36.4,0-66.1-29.6-66.1-66.1s29.6-66.1,66.1-66.1S512,219.6,512,256S482.4,322.1,445.9,322.1z"
			/>
	</g>
	<path class="st1" d="M214.7,223.6c0,4.5-1.8,8.9-5,12.1l11.7,11.7c6.3-6.3,9.8-14.9,9.8-23.8c0-18.5-15.1-33.6-33.6-33.6v16.5
		C207,206.5,214.7,214.1,214.7,223.6z"/>
	<polygon class="st1" points="140.4,280.8 156.9,280.8 156.9,264.3 173.4,264.3 173.4,247.7 156.9,247.7 156.9,231.2 140.4,231.2 
		140.4,247.7 123.9,247.7 123.9,264.3 140.4,264.3 	"/>
	<path class="st1" d="M479,256c0-18.2-14.8-33-33-33c-18.2,0-33,14.8-33,33c0,15.4,10.6,28.2,24.8,31.9v166.3
		c0,22.8-18.5,41.3-41.3,41.3s-41.3-18.5-41.3-41.3v-74.3c0-31.9-25.9-57.8-57.8-57.8s-57.8,25.9-57.8,57.8v74.3
		c0,22.8-18.5,41.3-41.3,41.3s-41.3-18.5-41.3-41.3v-57.8h16.5V342l71.3-71.3c6.9-6.9,12.1-15.2,15.4-24.1c1-1,1.9-1.8,2.2-2.2
		c22.6-26.7,35-60.8,35-95.8V57.8c0-22.8-18.5-41.3-41.3-41.3h-8.3V0h-41.3c-13.7,0-24.8,11.1-24.8,24.8s11.1,24.8,24.8,24.8h41.3
		V33h8.3c13.7,0,24.8,11.1,24.8,24.8v90.8c0,23.1-6.1,45.8-17.3,65.4c-4.6-32.3-32.4-57.2-65.9-57.2c-17.8,0-34.5,6.9-47.1,19.5
		l-1.8,1.8l-1.8-1.8c-12.6-12.6-29.3-19.5-47.1-19.5c-33.5,0-61.2,24.8-65.9,57c-11.2-19.8-17.3-42.2-17.3-65.3V57.8
		C16.5,44.1,27.6,33,41.3,33h8.3v16.5h41.3c13.7,0,24.8-11.1,24.8-24.8S104.5,0,90.8,0H49.5v16.5h-8.3C18.5,16.5,0,35,0,57.8v90.8
		c0,35.2,12.5,69.4,35.8,96.7c0,0,0.6,0.6,1.4,1.4c3.3,8.9,8.4,17.1,15.3,24l71.3,71.3v54.4h16.5v57.8c0,31.9,25.9,57.8,57.8,57.8
		s57.8-25.9,57.8-57.8v-74.3c0-22.8,18.5-41.3,41.3-41.3s41.3,18.5,41.3,41.3v74.3c0,31.9,25.9,57.8,57.8,57.8s57.8-25.9,57.8-57.8
		V287.9C468.4,284.2,479,271.4,479,256z M231.2,33h-24.8c-4.6,0-8.3-3.7-8.3-8.3s3.7-8.3,8.3-8.3h24.8V33z M66.1,16.5h24.8
		c4.6,0,8.3,3.7,8.3,8.3S95.4,33,90.8,33H66.1V16.5z M156.9,379.9h-16.5v-33h16.5V379.9z M49.5,223.6c0-27.6,22.5-50.1,50.1-50.1
		c13.4,0,26,5.2,35.5,14.7l13.5,13.5l13.5-13.5c9.5-9.5,22.1-14.7,35.5-14.7c27.6,0,50.1,22.5,50.1,50.1c0,13.4-5.2,26-14.7,35.5
		l-71.3,71.3h-26.2L64.2,259C54.8,249.5,49.5,236.9,49.5,223.6z M445.9,272.5c-9.1,0-16.5-7.4-16.5-16.5c0-9.1,7.4-16.5,16.5-16.5
		c9.1,0,16.5,7.4,16.5,16.5C462.5,265.1,455,272.5,445.9,272.5z"/>
</g>
</svg>
