<?xml version="1.0"?>
<svg xmlns="http://www.w3.org/2000/svg" xmlns:xlink="http://www.w3.org/1999/xlink" version="1.1" id="Layer_1" x="0px" y="0px" viewBox="0 0 496 496" style="enable-background:new 0 0 496 496;" xml:space="preserve" width="512px" height="512px" class=""><g><path style="fill:#F5A205" d="M368,0c-17.648,0-32,14.352-32,32v176h16c0-8.824,7.176-16,16-16h128V0H368z M456,104h-80V40h80V104z  " data-original="#F9BA48" class="" data-old_color="#F9BA48"/><g>
	<path style="fill:#333333" d="M395.464,373.784L392,376.168V496h16V384.52c42.656-30.624,72.104-75.504,83.112-126.84l-15.64-3.36   C465.024,303.032,436.608,345.456,395.464,373.784z" data-original="#333333" class="active-path"/>
	<path style="fill:#333333" d="M336,104h-32c-26.472,0-48,21.528-48,48v176c0,17.648-14.352,32-32,32h-72v-46.032l-52.088-14.88   l46.968-84l-0.472-2.784c-3.528-20.856-3.168-41.592,1.104-61.64C164.12,72.408,233.096,16.152,312.008,16.152   c0.704,0,1.416,0.008,2.128,0.016c1.424,0.016,2.832,0.088,4.248,0.152l1.256,0.064L320.36,0.4l-1.216-0.056   c-1.6-0.08-3.2-0.152-4.816-0.168c-0.784-0.016-1.552-0.024-2.328-0.024c-86.424,0-161.96,61.56-180.144,147.184   c-4.496,21.128-5.056,42.92-1.68,64.832L76.08,308.92L136,326.032V424h80v72h16v-88h-80v-32h72c26.472,0,48-21.528,48-48V152   c0-17.648,14.352-32,32-32h32V104z" data-original="#333333" class="active-path"/>
	<path style="fill:#333333" d="M24,336c-13.232,0-24,10.768-24,24v40h16v-16h16v16h16v-40C48,346.768,37.232,336,24,336z M16,368   v-8c0-4.416,3.584-8,8-8s8,3.584,8,8v8H16z" data-original="#333333" class="active-path"/>
	<path style="fill:#333333" d="M92,336H64v64h28c11.032,0,20-8.968,20-20c0-4.496-1.496-8.656-4.008-12   c2.512-3.344,4.008-7.504,4.008-12C112,344.968,103.032,336,92,336z M92,384H80v-8h12c2.2,0,4,1.8,4,4S94.2,384,92,384z M92,360H80   v-8h12c2.2,0,4,1.8,4,4S94.2,360,92,360z" data-original="#333333" class="active-path"/>
	<path style="fill:#333333" d="M368,192h128v-16H368c-17.648,0-32,14.352-32,32s14.352,32,32,32h128v-16H368   c-8.824,0-16-7.176-16-16S359.176,192,368,192z" data-original="#333333" class="active-path"/>
	<path style="fill:#333333" d="M464,32h-96v80h96V32z M448,96h-64V48h64V96z" data-original="#333333" class="active-path"/>
</g></g> </svg>
