<?xml version="1.0" encoding="utf-8"?>
<!-- Generator: Adobe Illustrator 23.0.1, SVG Export Plug-In . SVG Version: 6.00 Build 0)  -->
<svg version="1.1" id="Capa_1" xmlns="http://www.w3.org/2000/svg" xmlns:xlink="http://www.w3.org/1999/xlink" x="0px" y="0px"
	 viewBox="0 0 512 512" style="enable-background:new 0 0 512 512;" xml:space="preserve">
<style type="text/css">
	.st0{fill:#333333;stroke:#333333;stroke-width:4;stroke-miterlimit:10;}
	.st1{fill:#F5A205;}
	.st2{fill:#333333;}
</style>
<g>
	<path class="st0" d="M219.1,215c14.9,0,27-12.1,27-27c0-14.9-12.1-27-27-27c-14.9,0-27,12.1-27,27S204.3,215,219.1,215z M219.1,170
		c9.9,0,18,8.1,18,18c0,9.9-8.1,18-18,18s-18-8.1-18-18C201.1,178.1,209.2,170,219.1,170z"/>
	<path class="st0" d="M216.7,224c-5.5,0-10.7,2.5-14.1,6.8l-9.8,12.2l-9.1-10.4c-4.8-5.5-11.7-8.6-19-8.6c-6.7,0-13.1,2.6-17.8,7.4
		L117,261.3l6.4,6.4l29.9-29.9c3.1-3.1,7.1-4.8,11.5-4.8c4.7,0,9.1,2,12.2,5.5l25.3,28.9l6.8-5.9l-10.2-11.7l10.8-13.5
		c3.6-4.4,11.2-4.2,14.4,0.4l18.4,25.8l7.3-5.2l-18.4-25.8C228,226.8,222.5,224,216.7,224z"/>
</g>
<g>
	<rect x="272.5" y="206.5" class="st1" width="231.2" height="165.2"/>
	<g>
		<circle class="st1" cx="90.8" cy="355.1" r="16.5"/>
		<circle class="st1" cx="156.9" cy="355.1" r="16.5"/>
		<circle class="st1" cx="223" cy="355.1" r="16.5"/>
	</g>
	<g>
		<path class="st2" d="M0,470.7C0,493.5,18.5,512,41.3,512h297.3c22.8,0,41.3-18.5,41.3-41.3v-41.3H0V470.7z M16.5,445.9h346.8v24.8
			c0,13.7-11.1,24.8-24.8,24.8H41.3c-13.7,0-24.8-11.1-24.8-24.8V445.9z"/>
		<rect x="363.4" y="396.4" class="st2" width="16.5" height="16.5"/>
		<path class="st2" d="M16.5,66.1h346.8v115.6h16.5V41.3c0-22.8-18.5-41.3-41.3-41.3H41.3C18.5,0,0,18.5,0,41.3v371.6h16.5V66.1z
			 M41.3,16.5h297.3c13.7,0,24.8,11.1,24.8,24.8v8.3H16.5v-8.3C16.5,27.6,27.6,16.5,41.3,16.5z"/>
		<path class="st2" d="M264.3,198.2v181.7H512V198.2H264.3z M495.5,363.4H280.8V214.7h214.7V363.4z"/>
		<polygon class="st2" points="346.8,181.7 346.8,82.6 33,82.6 33,412.9 346.8,412.9 346.8,396.4 49.5,396.4 49.5,99.1 330.3,99.1 
			330.3,181.7 		"/>
		<polygon class="st2" points="297.3,181.7 297.3,115.6 82.6,115.6 82.6,313.8 247.7,313.8 247.7,297.3 99.1,297.3 99.1,132.1 
			280.8,132.1 280.8,181.7 		"/>
		<polygon class="st2" points="313.8,346.8 330.3,346.8 330.3,280.8 346.8,280.8 346.8,264.3 330.3,264.3 330.3,231.2 313.8,231.2 
			313.8,264.3 297.3,264.3 297.3,280.8 313.8,280.8 		"/>
		<polygon class="st2" points="445.9,346.8 462.5,346.8 462.5,330.3 479,330.3 479,313.8 462.5,313.8 462.5,231.2 445.9,231.2 
			445.9,313.8 429.4,313.8 429.4,330.3 445.9,330.3 		"/>
		<polygon class="st2" points="379.9,346.8 396.4,346.8 396.4,305.5 412.9,305.5 412.9,289 396.4,289 396.4,231.2 379.9,231.2 
			379.9,289 363.4,289 363.4,305.5 379.9,305.5 		"/>
		<rect x="140.4" y="462.5" class="st2" width="99.1" height="16.5"/>
		<path class="st2" d="M66.1,355.1c0,13.7,11.1,24.8,24.8,24.8s24.8-11.1,24.8-24.8c0-13.7-11.1-24.8-24.8-24.8
			S66.1,341.4,66.1,355.1z M99.1,355.1c0,4.6-3.7,8.3-8.3,8.3s-8.3-3.7-8.3-8.3c0-4.6,3.7-8.3,8.3-8.3S99.1,350.5,99.1,355.1z"/>
		<path class="st2" d="M132.1,355.1c0,13.7,11.1,24.8,24.8,24.8c13.7,0,24.8-11.1,24.8-24.8c0-13.7-11.1-24.8-24.8-24.8
			C143.2,330.3,132.1,341.4,132.1,355.1z M165.2,355.1c0,4.6-3.7,8.3-8.3,8.3c-4.6,0-8.3-3.7-8.3-8.3c0-4.6,3.7-8.3,8.3-8.3
			C161.5,346.8,165.2,350.5,165.2,355.1z"/>
		<path class="st2" d="M198.2,355.1c0,13.7,11.1,24.8,24.8,24.8c13.7,0,24.8-11.1,24.8-24.8c0-13.7-11.1-24.8-24.8-24.8
			C209.3,330.3,198.2,341.4,198.2,355.1z M231.2,355.1c0,4.6-3.7,8.3-8.3,8.3c-4.6,0-8.3-3.7-8.3-8.3c0-4.6,3.7-8.3,8.3-8.3
			C227.5,346.8,231.2,350.5,231.2,355.1z"/>
	</g>
</g>
</svg>
