<?xml version="1.0"?>
<svg xmlns="http://www.w3.org/2000/svg" xmlns:xlink="http://www.w3.org/1999/xlink" version="1.1" id="Layer_1" x="0px" y="0px" viewBox="0 0 496 496" style="enable-background:new 0 0 496 496;" xml:space="preserve" width="512px" height="512px" class=""><g><path style="fill:#F5A205" d="M224,400c-83.816,0-152-68.184-152-152S140.184,96,224,96s152,68.184,152,152S307.816,400,224,400z   M224,112c-74.992,0-136,61.008-136,136s61.008,136,136,136s136-61.008,136-136S298.992,112,224,112z" data-original="#F9BA48" class="active-path" data-old_color="#F9BA48"/><g>
	<path style="fill:#333333;" d="M0,24v448h496V24H0z M480,456H16V40h464V456z" data-original="#333333" class=""/>
	<path style="fill:#333333;" d="M224,440c105.864,0,192-86.136,192-192S329.864,56,224,56S32,142.136,32,248S118.136,440,224,440z    M224,72c97.048,0,176,78.952,176,176s-78.952,176-176,176S48,345.048,48,248S126.952,72,224,72z" data-original="#333333" class=""/>
	<path style="fill:#333333;" d="M224,304c30.872,0,56-25.128,56-56s-25.128-56-56-56s-56,25.128-56,56S193.128,304,224,304z    M224,208c22.056,0,40,17.944,40,40s-17.944,40-40,40s-40-17.944-40-40S201.944,208,224,208z" data-original="#333333" class=""/>
	<circle style="fill:#333333;" cx="224" cy="248" r="8" data-original="#333333" class=""/>
	<path style="fill:#333333;" d="M432,349.496c0,14.768-5.68,28.664-16,39.192l-2.344-2.344c-7.296-7.296-20.016-7.296-27.312,0l-8,8   c-7.528,7.528-7.528,19.784,0,27.312c3.768,3.768,8.712,5.648,13.656,5.648s9.888-1.88,13.656-5.648l21.256-21.256   c13.6-13.592,21.088-31.672,21.088-50.904V120h16V56h-48v64h16L432,349.496L432,349.496z M394.344,410.344   c-1.296,1.296-3.392,1.296-4.688,0c-1.288-1.288-1.288-3.4,0-4.688l8-8c0.648-0.648,1.496-0.968,2.344-0.968   s1.696,0.32,2.344,0.968l2.344,2.344L394.344,410.344z M432,72h16v32h-16V72z" data-original="#333333" class=""/>
	<polygon style="fill:#333333;" points="40,440 56,440 56,416 64,416 64,400 56,400 56,392 40,392 40,400 32,400 32,416 40,416  " data-original="#333333" class=""/>
</g></g> </svg>
