<svg xmlns="http://www.w3.org/2000/svg" viewBox="0 0 500 500"><defs><style>.a{fill:#f5a205;}.b{fill:#333;}</style></defs><title>upload</title><rect class="a" x="133.93" y="276.59" width="232.14" height="187.66"/><rect class="b" x="241.07" y="231.91" width="17.86" height="17.87"/><rect class="b" x="276.79" y="231.91" width="17.86" height="17.87"/><rect class="b" x="133.93" y="267.66" width="232.14" height="17.87"/><rect class="b" x="133.93" y="303.4" width="232.14" height="17.87"/><rect class="b" x="133.93" y="339.15" width="232.14" height="17.87"/><rect class="b" x="133.93" y="374.89" width="232.14" height="17.87"/><rect class="b" x="133.93" y="410.64" width="26.79" height="17.87"/><rect class="b" x="178.57" y="410.64" width="187.5" height="17.87"/><rect class="b" x="133.93" y="446.38" width="196.43" height="17.87"/><rect class="b" x="348.21" y="446.38" width="17.86" height="17.87"/><path class="b" d="M401.79,231.91h-.24l-71.42-71.49H223.21V178.3H317.5v71.49h66.43V482.13H116.07V178.3h35.72V160.42H98.21V500H401.79V249.79m-66.43-58.86,40.94,41H335.36Z"/><path class="b" d="M401.79,303.83a98.31,98.31,0,0,0,17.62-195C415.61,48.18,365.11,0,303.57,0A116.12,116.12,0,0,0,206.4,52.66,89.16,89.16,0,0,0,80.76,125.51a89.37,89.37,0,0,0,8.53,178.32h8.92V286H89.29a71.49,71.49,0,0,1,0-143h8.92V134A71.32,71.32,0,0,1,205.28,72.16l7.88,4.56,4.4-8a98.3,98.3,0,0,1,86-50.87c54.15,0,98.22,44.1,98.22,97.85l0,9,8,.8a80.43,80.43,0,0,1-8,160.45Z"/><polygon class="a" points="187.5 21.21 116.07 116.53 151.79 116.53 151.79 249.79 223.21 249.79 223.21 116.53 258.93 116.53 187.5 21.21"/></svg>