<svg xmlns="http://www.w3.org/2000/svg" viewBox="0 0 153.95 151"><title>lg-pattern-03</title><path d="M40.72,25.63s4.92.49.11,7.85c0,0-10,13.18-4.38-2.91,1.82-5.23,4.27-4.94,4.27-4.94" style="fill:#34a253;fill-rule:evenodd"/><polygon points="114.75 0.5 153.45 0.5 153.45 39.2 114.75 39.2 114.75 0.5" style="fill:none;stroke:#b7b7b7"/><polygon points="76.05 39.2 114.75 39.2 114.75 77.9 76.05 77.9 76.05 39.2" style="fill:none;stroke:#b7b7b7"/><path d="M10.46,143.22a13.39,13.39,0,0,0,5.75-.59c3.33-1.09,6.23-4,6-9.47a13.42,13.42,0,0,0-4.15-9.26c-2.77-2.33-6.54-1-9.24.6a18.48,18.48,0,0,0-3.32,2.8,12.84,12.84,0,0,0-2.88,3.8,8.36,8.36,0,0,0,.18,7.75,9.11,9.11,0,0,0,5.38,3.9,13.87,13.87,0,0,0,2.27.47" style="fill:#fabb05;fill-rule:evenodd"/><path d="M134.7,66.31s-4.88,8,.52,8.49c0,0,11.33-1.7,4.15-9.7-2.45-2.72-4.67,1.21-4.67,1.21" style="fill:#4280ee;fill-rule:evenodd"/><path d="M79.47,99.34c-.6-1.85-2.52-2.53-4.45-1.83a2.88,2.88,0,0,0-1.83,4c.75,1.47,2.57,2,4.6,1.35a2.75,2.75,0,0,0,1.68-3.54" style="fill:#e44335;fill-rule:evenodd"/><path d="M26.54,52a52.89,52.89,0,1,0,53.6,91.19Z" style="fill:none;stroke:#b7b7b7"/></svg>