<svg xmlns="http://www.w3.org/2000/svg" viewBox="0 0 148.9 150"><title>lg-pattern-02</title><path d="M148.4,5.44a47.1,47.1,0,0,0,0,94.19Z" style="fill:none;stroke:#bdc1c6"/><polygon points="9.58 82.47 0.64 56.6 69.97 32.65 78.92 58.52 9.58 82.47" style="fill:none;stroke:#bdc1c6"/><polygon points="148.4 146.09 148.4 99.21 101.52 99.21 101.52 146.09 148.4 146.09" style="fill:none;stroke:#bdc1c6"/><path d="M33.87,2s2.92-6.29,10.54,3.44c0,0,13,19.24-5.9,4.47C32.36,5.11,33.87,2,33.87,2" style="fill:#e44335;fill-rule:evenodd"/><path d="M119.56,141.26c1.15,1.25-.59,5.76-3,7.76s-5.85.62-7.09-1.18-1.57-5,1.87-7c2.91-1.71,7.29-.56,8.2.43" style="fill:#fabb05;fill-rule:evenodd"/><path d="M40.66,75.29c-2.24-6.07,1.45-12.53,5.91-14.6s12.73-.18,15.19,5-.82,13.71-5.82,16S43,81.69,40.66,75.29" style="fill:#34a253;fill-rule:evenodd"/><path d="M94.22,21.1c-3.53-1.09-4.82-4.56-3.49-8a5.56,5.56,0,0,1,7.66-3.31c2.8,1.34,3.88,4.65,2.59,8.31s-5.17,3.53-6.76,3" style="fill:#3e82f7;fill-rule:evenodd"/></svg>