<svg xmlns="http://www.w3.org/2000/svg" viewBox="0 0 271.19 201.79"><title>lg-pattern-01</title><path d="M50.88,45.33s3.88,2.77.24,12.59C39.9,88.19,41.28,56.4,41.28,56.4c1.9-16.75,9.6-11.07,9.6-11.07" style="fill:#e44335;fill-rule:evenodd"/><polygon points="0.66 111.05 91.35 71.2 41.01 200.5 0.66 111.05" style="fill:none;stroke:#b7b7b7"/><path d="M235.91.5h-134A82,82,0,0,0,184,81.73,82,82,0,0,0,266.1.5Z" style="fill:none;stroke:#b7b7b7"/><path d="M128,133.17c3.64-2.53,7.92-.44,10.95,1.91,2.85,2.21,1.34,6.78-1.1,8.88-3.58,3.1-9.29,3.26-13.16,1a3.22,3.22,0,0,1-1.4-1.45c-.76-1.75,0-3.89.9-5.47.33-.59.65-1.17,1-1.74A10.52,10.52,0,0,1,128,133.17Z" style="fill:#34a253;fill-rule:evenodd"/><path d="M252.37,75.56c3.35-4.48,9.21-4.42,13.81-.68s6.52,9.73,3.68,14.09-8.57,4.8-13.78.85-6.81-10.13-3.71-14.26" style="fill:#fabb05;fill-rule:evenodd"/><path d="M2.35,168.81C.82,163.72.41,151.33,11.78,147.2s21.64-.69,25.8,8.26.55,20.23-10.27,24.5-21.58.12-25-11.15" style="fill:#3e82f7;fill-rule:evenodd"/></svg>