<svg xmlns="http://www.w3.org/2000/svg" viewBox="0 0 360 306.29"><title>arrow-paperclip</title><path d="M310,306.29c-15.46,0-34.49-5.49-54.64-11.3l-8.49-2.44c-21.06-6-75.8-23-128.93-52s-88.67-60.5-106-94.14C-1.87,119.75-3.7,91.73,6.46,63.19,25,11,72.36,0,108.79,0c34.15,0,73.72,9.56,111.42,26.93,35.34,16.28,65.16,37.74,81.93,59-18.57-6.45-39.48-17.45-61.59-29.09C199,34.92,151.8,10.11,107.72,10.11c-19.36,0-37.14,4.85-52.85,14.42C23.53,43.62,8.34,67.11,9.72,94.36,11.5,129.21,40.77,162.71,65,184.68c30.34,27.48,65.38,48.85,88.06,59.68,34.12,16.3,79.43,36,127.29,43.65a97.35,97.35,0,0,0,15.27,1.27c20.48,0,35.29-7.55,40.64-20.7,5.9-14.52,2.77-41.72-45.6-88.83-17-18-38.26-33.55-65.09-47.63-3.4-1.78-6.85-3.62-10.34-5.49-22.49-12-45.76-24.41-69.84-30.17-12.58-3-30.88-6.59-46.6-6.59C83.64,89.87,74,93.2,69.37,100c-3.6,5.3-3.78,12.13-.54,20.31,16.26,41,62.25,59.1,102.82,75,11.56,4.54,22.47,8.83,32.19,13.43,2.37,1.12,3.27,2.79,2.75,5.1-.63,2.8-3.41,5.82-6.8,5.82a6.81,6.81,0,0,1-2.93-.71c-6.07-2.87-14.41-6.22-24.07-10.1-24.95-10-59.12-23.76-84.6-41.53C59.24,147.22,48.55,127,55.5,105.59c6.61-20.36,21.43-30.26,45.32-30.26,24.9,0,54.43,11,74.47,19.28,29.24,12.06,77,36.44,115.19,65.43,22.28,16.89,39.07,33.55,49.91,49.53,12.4,18.29,16.93,35.67,13.47,51.66-6.86,31.58-20,45.06-43.88,45.06Z"/><path d="M355.25,126.48a18.56,18.56,0,0,1-6-1.19c-20.12-7.89-40.85-13.89-60.89-19.69C268.48,99.85,248,93.91,228.25,86.18c-3.27-1.31-4.42-3.59-4.1-5.26A1.7,1.7,0,0,1,226,79.43a5.11,5.11,0,0,1,1.16.16c16.62,4.13,33.42,8.53,49.66,12.77s33.08,8.65,49.77,12.81l12.16,3L315.68,71.3l-.12-.15c-4.31-5.86-9-11.15-13.56-16.26C296.11,48.26,290.55,42,286.13,35l-.1-.15c-.92-1.36-1.33-2.6-1-3.14s1.8-1.47,4.05-1.47a9.06,9.06,0,0,1,3,.53c32.17,14.11,57.14,67.17,66.55,87.15,1.42,3,1.75,5.68.88,7-.63,1-2.18,1.56-4.26,1.56Z"/></svg>