<svg xmlns="http://www.w3.org/2000/svg" viewBox="0 0 512 437.65"><title>arrow-paperclip</title><path d="M252.19,131.39c-54.85-22.65-150.55-55.9-175,19.5-29,89.25,147.92,141.13,199.19,165.4,18,8.51,33.72-18.22,15.66-26.78-61-28.85-155.69-49.1-183.24-118.62-20.22-51,79.74-28,97.78-23.65,37.65,9,75.18,30.8,109.28,48.71,32.55,17.09,63,37.8,88.3,64.59,108.93,106,60.35,148.88-8.17,137.92-60.32-9.65-119.42-33.63-174.16-59.78C131.1,295.36-73.16,144.23,86.6,46.9c105.89-64.51,242.54,54,338,86.19,6.91,2.32,10-6.31,6.37-11C351.37,20.25,69.76-77.57,9.39,92.06c-63.25,177.76,209,289.87,337.18,326.33,75.74,21.54,136.58,44.54,156.78-48.58C525.85,266.07,323.85,161,252.19,131.39Z"/><path d="M413.69,43c-11.43-4.33-25.64,3-16.79,16.06,11.3,18,27.65,32.37,41,50.5l22.6,36.11c-46.1-11.48-91.46-23.91-137.57-35.39-14.24-3.46-18.85,16-2.72,22.45,55.13,21.61,112.28,32.51,167.41,54.12,18.19,6.54,29.76-2.84,21.83-19.79C491.15,128.17,458,62.26,413.69,43Z"/></svg>