<svg xmlns="http://www.w3.org/2000/svg" viewBox="0 0 512 512"><title>arrow-paperclip</title><path d="M435.8,467.83c-21.38,0-47.7-7.59-75.57-15.63l-11.74-3.37C319.35,440.54,243.64,417,170.15,377,96.83,337.09,47.5,293.28,23.52,246.76c-19-36.95-21.58-75.7-7.53-115.18C41.7,59.34,107.15,44.17,157.54,44.17c47.24,0,102,13.23,154.11,37.25C360.54,103.93,401.78,133.63,425,163c-25.68-8.91-54.6-24.13-85.19-40.23C282.24,92.47,217,58.15,156.05,58.15c-26.78,0-51.37,6.71-73.1,19.95C39.6,104.51,18.59,137,20.51,174.68,23,222.9,63.45,269.23,97,299.61c42,38,90.43,67.58,121.8,82.56C266,404.71,328.65,432,394.85,442.54A133.59,133.59,0,0,0,416,444.3c28.33,0,48.82-10.44,56.21-28.63C480.34,395.59,476,358,409.11,292.8c-23.47-24.85-52.92-46.4-90-65.88q-7.05-3.71-14.3-7.59c-31.11-16.6-63.29-33.77-96.61-41.73-17.39-4.16-42.7-9.11-64.46-9.11-21,0-34.28,4.59-40.7,14-5,7.33-5.23,16.79-.75,28.1,22.49,56.76,86.1,81.75,142.23,103.8,16,6.28,31.07,12.21,44.52,18.57,3.28,1.55,4.52,3.86,3.8,7.06-.87,3.87-4.71,8-9.41,8a9.42,9.42,0,0,1-4-1c-8.39-4-19.93-8.61-33.29-14-34.51-13.87-81.77-32.87-117-57.44-40-27.91-54.83-55.88-45.22-85.49,9.14-28.17,29.65-41.86,62.69-41.86,34.45,0,75.29,15.21,103,26.66C290,191.72,356,225.44,408.85,265.54c30.81,23.35,54,46.41,69,68.51,17.16,25.29,23.43,49.33,18.63,71.45-9.48,43.68-27.63,62.33-60.7,62.33Z"/><path d="M498.44,219.12a25.56,25.56,0,0,1-8.35-1.65c-27.84-10.91-56.51-19.21-84.23-27.24-27.45-7.94-55.82-16.16-83.09-26.85-4.52-1.81-6.12-5-5.67-7.28a2.36,2.36,0,0,1,2.59-2.06,6.88,6.88,0,0,1,1.6.22c23,5.72,46.22,11.79,68.7,17.67s45.75,12,68.83,17.71l16.82,4.19-31.94-51-.16-.22c-6-8.09-12.46-15.41-18.75-22.48-8.15-9.17-15.85-17.83-22-27.58l-.14-.22c-1.28-1.88-1.84-3.58-1.44-4.34s2.48-2,5.6-2a12.32,12.32,0,0,1,4.21.74c44.5,19.51,79,92.9,92.06,120.54,2,4.21,2.42,7.86,1.21,9.75-.87,1.37-3,2.16-5.9,2.16Z"/></svg>