<svg xmlns="http://www.w3.org/2000/svg" viewBox="0 0 512 512"><title>polaroids</title><path d="M507.93,47.09c1.9-.61,4.26.33,4.06,2.83-9.26,100.8-27,199.37-50.6,297.87a1.64,1.64,0,0,1-1.56,1.21,3.12,3.12,0,0,1-2.9.95c-84.85-16.76-170-32.16-254.76-49.05a2,2,0,0,1-1.55-1.48c-1.56,0-3.25-1-3-2.84,5.13-47.43,12.29-94.72,19.93-141.81,8.1-50.19,13.84-103.83,29.79-152.27a1.17,1.17,0,0,1,.87-.74,2.16,2.16,0,0,1,2-1.76c85.66,2.63,173.15,22.09,255.5,44.59A2.9,2.9,0,0,1,507.93,47.09Z" style="fill:#1d1d1b"/><path d="M505.57,50.8a2.91,2.91,0,0,1-1.55,0c-84.25-21.75-168.56-33-254.22-46.54-1.9,20.67-5.41,41.27-9.39,61.88-5.07,25.87-10.81,51.75-15.07,77.49-8.38,50.8-14.93,101.74-21.89,152.75,84.79,7.09,172.68,24.45,254.56,47.49,3.65-46.28,14.8-92.49,25.67-137.48a704.81,704.81,0,0,0,13.65-76.27C500.71,103.84,503.07,77.42,505.57,50.8Z" style="fill:#fff"/><path d="M491.92,129.37c0,.07-.06.14-.06.27a39.37,39.37,0,0,0-1.56,11.56.76.76,0,0,1-1.48.2,22.6,22.6,0,0,1-.41-4.19A22.83,22.83,0,0,1,490,129.1,1,1,0,0,1,491.92,129.37Z" style="fill:#1d1d1b"/><path d="M485.84,136.47c.41-.88,1.69-.21,1.56.67a69.08,69.08,0,0,1-3.79,11.69.72.72,0,0,1-1.42-.14v-.2A66.78,66.78,0,0,1,485.84,136.47Z" style="fill:#1d1d1b"/><path d="M477.4,72.69c2.36.47,2.7,2.84,1.76,4.46a3,3,0,0,1,.13,1.35c-2.57,22.77-5.54,45.67-9.05,68.44-6.49,41.34-14.8,82.49-26.28,122.55a2,2,0,0,1-1.15,1.28,3.91,3.91,0,0,1-4.32,2.77C372.82,264.29,305.94,256.72,241,243c-1.21-.21-1.41-1.49-1-2.44a2.28,2.28,0,0,1-1.15-2.29c7.3-55.06,15.34-111,28-165.38,2.77-11.83,5.74-23.65,9-35.34a1.64,1.64,0,0,1,2.36-1.14.81.81,0,0,1,.88-.48C345.19,40.8,412.41,59.59,477.4,72.69Z" style="fill:#1d1d1b"/><path d="M472.6,78.5c0-.06.07-.13.07-.2-63.64-12-131.74-20.13-193.28-40,0,.14.06.14.06.28-11.21,66.94-25.4,133.15-34.92,200.44-.07.34-.21.54-.27.81,65.59,5.47,131.06,17.09,196.11,26.82h.07C452.87,204,465.1,142.07,472.6,78.5Z" style="fill:#ddd"/><path d="M462.06,227.67c.48-1.89,3.65-1.49,3.45.47s-.54,3.72-.88,5.54c-.4,2.3-3.85,1.29-3.51-1C461.39,231.05,461.66,229.36,462.06,227.67Z" style="fill:#1d1d1b"/><path d="M459.76,61a.83.83,0,0,1-.4,1.62A75,75,0,0,1,449.23,60a.74.74,0,0,1,.4-1.42C453,59.32,456.52,59.79,459.76,61Z" style="fill:#1d1d1b"/><path d="M456.12,320.83a13.27,13.27,0,0,1-.68,7.23c-.47,1.08-2.23.61-1.82-.47a15.43,15.43,0,0,0,.94-6.56C454.43,320.16,455.92,320,456.12,320.83Z" style="fill:#1d1d1b"/><path d="M455.58,54.25c1,.13.74,1.89-.27,1.76-3.72-.48-7.43-1.22-11.15-2-.81-.14-.61-1.56.2-1.42C448.08,53.1,451.86,53.51,455.58,54.25Z" style="fill:#1d1d1b"/><path d="M455.31,62.42c.33,0,.33.41,0,.41A.21.21,0,0,1,455.31,62.42Z" style="fill:#1d1d1b"/><path d="M450.24,314c.27-1.15,2-.61,1.76.54-.41,2.84-.95,5.61-1.62,8.44-.27,1.29-2.17.75-1.9-.54C449,319.61,449.56,316.85,450.24,314Z" style="fill:#1d1d1b"/><path d="M391.8,271.45c.88-.14,1.29,1.14.41,1.28-3.11.61-6.22,1.08-9.33,1.62-.67.07-1-1-.33-1.08C385.66,272.59,388.76,272,391.8,271.45Z" style="fill:#1d1d1b"/><path d="M390.52,279c.88.13.67,1.69-.2,1.55-2.3-.27-4.66-.68-7-1-.81-.14-.61-1.56.2-1.49C385.86,278.27,388.22,278.61,390.52,279Z" style="fill:#1d1d1b"/><path d="M317.15,285.3c1.28.2,1,2.43-.34,2.29-4.59-.47-9.18-1.15-13.78-1.82-1.28-.21-1-2.5.34-2.3C308,284,312.56,284.55,317.15,285.3Z" style="fill:#1d1d1b"/><path d="M316.81,17.84a.88.88,0,0,1,0,1.75,24.4,24.4,0,0,1-10.33-1.69c-1-.4-.61-2.09.47-1.75A35.73,35.73,0,0,0,316.81,17.84Z" style="fill:#1d1d1b"/><path d="M252.16,69.38a.7.7,0,0,1-.07.34,48.25,48.25,0,0,0-2.56,11.49c-.14,1.41-2.3,1.41-2.23,0a39.79,39.79,0,0,1,.74-6.36,30.69,30.69,0,0,1,2-6.08C250.47,67.76,252.16,68.37,252.16,69.38Z" style="fill:#1d1d1b"/><path d="M246.35,67.35c.27-1.14,2.3-.94,2.1.28-.34,2.36-.68,4.72-1.08,7.09s-.88,4.53-1.36,6.76c-.27,1.55-2.5.87-2.29-.61C244.46,76.34,245.27,71.81,246.35,67.35Z" style="fill:#1d1d1b"/><path d="M240.81,199.23c.2-1.08,1.76-.61,1.62.4-.54,3.65-1.08,7.3-1.76,11-.13,1.08-1.69.6-1.55-.41C239.6,206.52,240.2,202.88,240.81,199.23Z" style="fill:#1d1d1b"/><path d="M239.32,288.47c.68.14.54,1.35-.2,1.28-3.17-.4-6.35-1-9.46-1.62-.94-.13-.54-1.48.34-1.35C233.11,287.26,236.22,287.8,239.32,288.47Z" style="fill:#1d1d1b"/><path d="M235.75,291.17a1.19,1.19,0,0,1,0,2.37c-6.22.27-12.64-1-18.72-2.23-.95-.2-.74-1.76.2-1.62C223.38,290.5,229.6,290.57,235.75,291.17Z" style="fill:#1d1d1b"/><path d="M234.46,194.23c.14-.74,1.35-.54,1.29.13-.28,2.37-.54,4.66-.88,7-.14.68-1.29.47-1.22-.2Q234,197.67,234.46,194.23Z" style="fill:#1d1d1b"/><path d="M326.37,156.6c11.47,47.61,9,100.18,11.73,148.85q4.62,84,9.35,168c0,.06.06.05.12.1,1.6,2.79.6,5.95-1.25,8.39a1.78,1.78,0,0,1-1.1.6,3,3,0,0,1-2.47,1.92C239.63,498.18,132.9,513,28.69,512a1.88,1.88,0,0,1-1.54-.73,2.71,2.71,0,0,1-2.26-2.5C13.37,398.91.73,288,0,177.43a1.93,1.93,0,0,1,.47-1.24A2,2,0,0,1,1.81,173c104.44-19.13,215.71-19.69,321.62-21.52A3.38,3.38,0,0,1,326.37,156.6Zm6,118c-2.33-39.05-5.33-78-9.79-116.68q-79.92,1.27-159.65,6.15c-53,3.35-106,10.7-159,12.79a.3.3,0,0,1,.08.23c1.15,14.81,2.23,29.57,3.33,44.39C14.34,317,20.86,412.29,30.63,507.68,134.31,496,238.57,491.47,342.24,478.17a3.84,3.84,0,0,1,1.2.07,4.14,4.14,0,0,0,.05-.86,2.45,2.45,0,0,1-1.74-2.37C338.16,408.48,336.29,341.41,332.33,274.62Z" style="fill:#1d1d1b"/><path d="M322.54,157.94c4.46,38.7,7.47,77.63,9.79,116.68l-5.8.36c0-.92-1.44-1-1.6-.1-.58,3.42-.82,6.75-1.06,10.14v.11l-6.81.56c-2.59-34.57-6-69.13-10.08-103.36a2.4,2.4,0,0,0-4.31-1.07,5.58,5.58,0,0,0-.6-.3,1.86,1.86,0,0,0-.52-.07,2.24,2.24,0,0,0-2.16-1.31c-89.54,3.7-180.69,4.5-269.39,18.47a2.24,2.24,0,0,0-1.57,1,2.63,2.63,0,0,0-1.57,2.53l.06,5-3.42.05a20.89,20.89,0,0,0-.49-3.22c-.21-1.12-2-1.09-1.82.15a31.82,31.82,0,0,1-.4,11.91l-3.15-.19c.08-1.84.21-3.68.41-5.46.22-1.51-2-2-2.27-.45a46.9,46.9,0,0,0-.48,11.58l-8.06.6c-1.1-14.82-2.18-29.58-3.33-44.39a.3.3,0,0,0-.08-.23c53-2.09,106-9.44,159-12.79S269.26,158.79,322.54,157.94Zm-22.35,11a1.16,1.16,0,0,0-.47-2.24,31.9,31.9,0,0,1-11.89-.12c-1.39-.29-1.69,1.74-.4,2.09A23.54,23.54,0,0,0,300.19,169Zm-2-4c1.37.06,1.53-2.24.14-2.41a51.91,51.91,0,0,0-14.56.67c-1.3.22-1.19,2.27.17,2.1A90.45,90.45,0,0,1,298.15,165ZM70.25,185.12c1.72.09,2.26-2.47.52-2.73a41,41,0,0,0-11.8.28c-1.57.3-1.43,2.75.21,2.55A59.38,59.38,0,0,1,70.25,185.12Z" style="fill:#f6f6f6"/><path d="M326.53,275l5.8-.36c4,66.79,5.83,133.86,9.42,200.39a2.45,2.45,0,0,0,1.74,2.37,4.18,4.18,0,0,1-.05.86,3.84,3.84,0,0,0-1.2-.07c-103.67,13.3-207.93,17.8-311.61,29.5C20.86,412.29,14.35,317,7.25,221.49l8.06-.6c.06.74.12,1.54.25,2.33a1,1,0,0,0,2.09-.17,73,73,0,0,1,0-7.83l3.15.2c-.3,1.17,1.56,1.53,1.86.36a28,28,0,0,0,.85-9.2l3.42-.05c1.26,72.88,6.69,146.58,20.58,218.21-1.33.39-.76,2.57.66,2.46,43.65-4,87.59-2.4,131.33-5.34,47-3.14,93.83-8.5,140.51-14.53a2.47,2.47,0,0,0,2.1-3,1.24,1.24,0,0,1,.08-.46c-.29-39.22-2.13-78.7-5.12-118.16l6.81-.55c.07.91,1.35,1.15,1.5.22A103.07,103.07,0,0,0,326.53,275ZM313.77,417.66a1,1,0,0,0-.16-2c-2.38.13-4.76.44-7.14.69a.85.85,0,0,0,.14,1.7C309,418,311.4,417.91,313.77,417.66Zm-.29-2.89c1.14,0,.95-1.67-.14-1.7-3.78-.15-7.54,0-11.4.19-1,.08-.84,1.61.13,1.64C305.9,415,309.68,415,313.48,414.77ZM217.88,459c1.37.06,1.2-2-.17-2.1-4.3-.16-8.58-.15-12.87-.2-1,0-1.07,1.63-.09,1.72C209.11,458.63,213.53,458.9,217.88,459Zm-97.34-5.83a1,1,0,0,0,.88-1.84,5.45,5.45,0,0,1-3.06-4.49,1,1,0,0,0-2,.16A6.49,6.49,0,0,0,120.54,453.17Zm-82.21,39c.36.88,1.88.64,1.74-.37-.65-4.52-1.52-8.9-2-13.44-.06-.73-1.33-.92-1.37-.06A34,34,0,0,0,38.33,492.2Zm-3.79-17.11c0-1.09-1.93-1.22-2-.07a53.19,53.19,0,0,0,.66,15.88,1,1,0,0,0,1.93-.15C34.82,485.52,34.4,480.35,34.54,475.09Z" style="fill:#f6f6f6"/><path d="M324.93,274.88c.15-.87,1.64-.82,1.6.1a103.07,103.07,0,0,1-1.15,10.37c-.15.93-1.43.69-1.5-.22V285C324.11,281.63,324.35,278.3,324.93,274.88Z" style="fill:#1d1d1b"/><path d="M307,182.33c4,34.23,7.49,68.79,10.08,103.36,3,39.45,4.83,78.94,5.12,118.15a1.24,1.24,0,0,0-.08.46,2.47,2.47,0,0,1-2.1,3c-46.68,6-93.53,11.39-140.51,14.54-43.74,2.93-87.68,1.32-131.33,5.33-1.42.12-2-2.06-.66-2.46C33.62,353.11,28.19,279.42,26.93,206.53l-.06-5A2.6,2.6,0,0,1,28.43,199a2.28,2.28,0,0,1,1.58-1c88.7-14,179.85-14.77,269.39-18.47a2.25,2.25,0,0,1,2.16,1.31,1.91,1.91,0,0,1,.52.07,5.36,5.36,0,0,1,.59.3A2.41,2.41,0,0,1,307,182.33Z" style="fill:#1d1d1b"/><path d="M302.4,184.19a2.21,2.21,0,0,1-1.36.06l-.3-.15a2.67,2.67,0,0,1-.95.25c-89.48,3.81-178.33,11.05-267.54,18,1,57.61,6,114.37,12.59,171.29,0,0,4.57,37.15,6.32,50.26,10.5-2.23,93.09-5,122.3-6.83,48.35-3,96.41-9,144.57-14.52C315.77,369.29,305.67,221.51,302.4,184.19Z" style="fill:#eee"/><path d="M299.72,166.71a1.16,1.16,0,0,1,.47,2.24,23.64,23.64,0,0,1-12.76-.27c-1.29-.35-1-2.38.4-2.09A31.9,31.9,0,0,0,299.72,166.71Z" style="fill:#1d1d1b"/><path d="M298.29,162.54c1.39.17,1.23,2.47-.14,2.41a90.45,90.45,0,0,0-14.25.36c-1.36.17-1.47-1.88-.17-2.1A51.91,51.91,0,0,1,298.29,162.54Z" style="fill:#1d1d1b"/><path d="M313.61,415.68a1,1,0,0,1,.16,2c-2.37.25-4.77.33-7.16.41a.85.85,0,0,1-.14-1.7C308.85,416.12,311.23,415.81,313.61,415.68Z" style="fill:#1d1d1b"/><path d="M313.34,413.07c1.09,0,1.28,1.67.14,1.7-3.8.26-7.58.22-11.41.13-1,0-1.15-1.56-.13-1.64C305.8,413.06,309.56,412.92,313.34,413.07Z" style="fill:#1d1d1b"/><path d="M217.71,456.9c1.37.06,1.54,2.16.17,2.1-4.35-.1-8.77-.37-13.13-.58-1-.09-.88-1.76.09-1.72C209.13,456.75,213.41,456.74,217.71,456.9Z" style="fill:#1d1d1b"/><path d="M121.42,451.33a1,1,0,0,1-.88,1.84,6.5,6.5,0,0,1-4.22-6.17,1,1,0,0,1,2.05-.16A5.44,5.44,0,0,0,121.42,451.33Z" style="fill:#1d1d1b"/><path d="M70.77,182.4c1.74.25,1.2,2.81-.52,2.72a59.38,59.38,0,0,0-11.07.1c-1.64.2-1.78-2.25-.21-2.55A40.62,40.62,0,0,1,70.77,182.4Z" style="fill:#1d1d1b"/><path d="M23,203.36a20.89,20.89,0,0,1,.49,3.22,28.07,28.07,0,0,1-.85,9.21c-.3,1.16-2.16.8-1.86-.37a31.82,31.82,0,0,0,.4-11.91C21,202.27,22.81,202.24,23,203.36Z" style="fill:#1d1d1b"/><path d="M15.79,209.32c.22-1.5,2.49-1.06,2.27.45-.2,1.78-.34,3.62-.42,5.46a75.54,75.54,0,0,0,0,7.82,1.05,1.05,0,0,1-2.1.17c-.12-.79-.18-1.58-.24-2.32A46.9,46.9,0,0,1,15.79,209.32Z" style="fill:#1d1d1b"/><path d="M40.07,491.83c.14,1-1.38,1.25-1.74.37a33.78,33.78,0,0,1-1.58-13.86c0-.87,1.31-.68,1.37.06C38.55,482.93,39.42,487.31,40.07,491.83Z" style="fill:#1d1d1b"/><path d="M32.54,475c.07-1.15,2-1,2,.07-.14,5.26.28,10.43.59,15.66a1,1,0,0,1-1.93.15A53.19,53.19,0,0,1,32.54,475Z" style="fill:#1d1d1b"/></svg>