<?xml version="1.0"?>
<svg xmlns="http://www.w3.org/2000/svg" xmlns:xlink="http://www.w3.org/1999/xlink" version="1.1" id="Capa_1" x="0px" y="0px" viewBox="0 0 496 496" style="enable-background:new 0 0 496 496;" xml:space="preserve" width="512px" height="512px" class=""><g><g>
	<rect x="272" y="240" style="fill:#8FBE36" width="16" height="112" data-original="#E56565" class="" data-old_color="#E56565"/>
	<rect x="208" y="240" style="fill:#8FBE36" width="16" height="112" data-original="#E56565" class="" data-old_color="#E56565"/>
	<path style="fill:#8FBE36" d="M368,304h-32c-13.232,0-24-10.768-24-24v-48h16v48c0,4.416,3.584,8,8,8h32V304z" data-original="#E56565" class="" data-old_color="#E56565"/>
	<path style="fill:#8FBE36" d="M160,304h-32v-16h32c4.416,0,8-3.584,8-8v-48h16v48C184,293.232,173.232,304,160,304z" data-original="#E56565" class="" data-old_color="#E56565"/>
	<rect x="272" y="368" style="fill:#8FBE36" width="16" height="16" data-original="#E56565" class="" data-old_color="#E56565"/>
	<rect x="208" y="368" style="fill:#8FBE36" width="16" height="16" data-original="#E56565" class="" data-old_color="#E56565"/>
	<rect x="384" y="288" style="fill:#8FBE36" width="16" height="16" data-original="#E56565" class="" data-old_color="#E56565"/>
	<rect x="96" y="288" style="fill:#8FBE36" width="16" height="16" data-original="#E56565" class="" data-old_color="#E56565"/>
</g><path style="fill:#8FBE36" d="M360,104c0-11.848-6.44-22.192-16.008-27.728l-2.432-0.064c1.56-3.76,2.44-7.88,2.44-12.208  c0-17.672-14.328-32-32-32h-1.128C307.304,18.224,294.896,8,280,8s-27.304,10.224-30.872,24h-2.264C243.304,18.224,230.896,8,216,8  s-27.304,10.224-30.872,24H184c-17.672,0-32,14.328-32,32c0,4.304,0.88,8.4,2.416,12.144l-2.408,0.128  C142.44,81.808,136,92.152,136,104c0,12.936,7.712,24.016,18.752,29.056C153.056,136.352,152,140.032,152,144  c0,10.448,6.68,19.336,16,22.632l2.256-3.336C168.904,167.312,168,171.536,168,176c0,22.088,17.912,40,40,40s40-17.912,40-40  c0,22.088,17.912,40,40,40s40-17.912,40-40c0-3.24-0.488-6.344-1.216-9.352l1.216-0.016c9.32-3.296,16-12.184,16-22.632  c0-3.968-1.056-7.648-2.752-10.944C352.288,128.016,360,116.936,360,104z" data-original="#FFCB57" class="" data-old_color="#FFCB57"/><g>
	<path style="fill:#333333" d="M336,416v16h144v24c0,13.232-10.768,24-24,24H40c-13.232,0-24-10.768-24-24v-24h144v-16H0v40   c0,22.056,17.944,40,40,40h416c22.056,0,40-17.944,40-40v-40H336z" data-original="#3F3A34" class="active-path" data-old_color="#3F3A34"/>
	<path style="fill:#333333" d="M176,440c0,13.232,10.768,24,24,24h96c13.232,0,24-10.768,24-24v-24H176V440z M192,432h112v8   c0,4.416-3.584,8-8,8h-96c-4.416,0-8-3.584-8-8V432z" data-original="#3F3A34" class="active-path" data-old_color="#3F3A34"/>
	<path style="fill:#333333" d="M32,144c0-13.232,10.768-24,24-24h56v-16H56c-22.056,0-40,17.944-40,40v256h16V144z" data-original="#3F3A34" class="active-path" data-old_color="#3F3A34"/>
	<path style="fill:#333333" d="M464,144v256h16V144c0-22.056-17.944-40-40-40h-56v16h56C453.232,120,464,130.768,464,144z" data-original="#3F3A34" class="active-path" data-old_color="#3F3A34"/>
	<path style="fill:#333333" d="M48,152v248h16V152h64v-16H64C55.176,136,48,143.176,48,152z" data-original="#3F3A34" class="active-path" data-old_color="#3F3A34"/>
	<path style="fill:#333333" d="M448,400V152c0-8.824-7.176-16-16-16h-64v16h64v248H448z" data-original="#3F3A34" class="active-path" data-old_color="#3F3A34"/>
	<path style="fill:#333333" d="M144.912,136.584C144.304,139.016,144,141.496,144,144c0,11.624,6.344,22.176,16.216,27.792   C160.088,173.184,160,174.576,160,176c0,26.472,21.528,48,48,48c16.688,0,31.392-8.568,40-21.52c8.608,12.96,23.312,21.52,40,21.52   c26.472,0,48-21.528,48-48c0-1.424-0.088-2.816-0.216-4.208C345.656,166.176,352,155.624,352,144c0-2.504-0.304-4.984-0.912-7.416   C361.544,129.168,368,117.04,368,104c0-12.928-6.36-25.008-16.76-32.472c0.464-2.44,0.76-4.952,0.76-7.528   c0-20.392-15.392-37.072-35.136-39.504C310.792,10.12,296.56,0,280,0c-13.128,0-24.704,6.448-32,16.248   C240.704,6.448,229.128,0,216,0c-16.56,0-30.792,10.12-36.864,24.496C159.392,26.928,144,43.608,144,64   c0,2.576,0.296,5.088,0.76,7.528C134.36,78.992,128,91.072,128,104C128,117.04,134.456,129.168,144.912,136.584z M280,16   c13.232,0,24,10.768,24,24s-10.768,24-24,24v16c21.568,0,39.08-17.192,39.856-38.568C329.224,44.704,336,53.528,336,64   c0,13.232-10.768,24-24,24v16c13.544,0,25.496-6.808,32.736-17.144C349.296,91.328,352,97.48,352,104   c0,9.328-5.528,17.872-14.088,21.784l-7.632,3.496l3.848,7.464c1.248,2.384,1.872,4.824,1.872,7.256   c0,4.328-1.888,8.248-4.816,11.184C323.416,139.128,307,128,288,128v16c17.648,0,32,14.352,32,32s-14.352,32-32,32   s-32-14.352-32-32V40C256,26.768,266.768,16,280,16z M151.264,86.856C158.504,97.192,170.456,104,184,104V88   c-13.232,0-24-10.768-24-24c0-10.472,6.776-19.296,16.144-22.568C176.92,62.808,194.432,80,216,80V64c-13.232,0-24-10.768-24-24   s10.768-24,24-24s24,10.768,24,24v136c0,17.648-14.352,32-32,32s-32-14.352-32-32s14.352-32,32-32v-16   c-19,0-35.416,11.128-43.184,27.184C161.888,152.248,160,148.328,160,144c0-2.432,0.624-4.872,1.864-7.264l3.848-7.464   l-7.632-3.496C149.528,121.872,144,113.328,144,104C144,97.48,146.704,91.328,151.264,86.856z" data-original="#3F3A34" class="active-path" data-old_color="#3F3A34"/>
	<rect x="32" y="448" style="fill:#333333" width="16" height="16" data-original="#3F3A34" class="active-path" data-old_color="#3F3A34"/>
	<rect x="64" y="448" style="fill:#333333" width="16" height="16" data-original="#3F3A34" class="active-path" data-old_color="#3F3A34"/>
	<rect x="96" y="448" style="fill:#333333" width="16" height="16" data-original="#3F3A34" class="active-path" data-old_color="#3F3A34"/>
</g></g> </svg>
