<?xml version="1.0" encoding="utf-8"?>
<!-- Generator: Adobe Illustrator 23.0.1, SVG Export Plug-In . SVG Version: 6.00 Build 0)  -->
<svg version="1.1" id="Layer_1" xmlns="http://www.w3.org/2000/svg" xmlns:xlink="http://www.w3.org/1999/xlink" x="0px" y="0px"
	 viewBox="0 0 513 512" style="enable-background:new 0 0 513 512;" xml:space="preserve">
<style type="text/css">
	.st0{fill:#8FBE36;}
	.st1{fill:#333333;}
</style>
<g>
	<g>
		<rect x="280.8" y="247.7" class="st0" width="16.5" height="115.6"/>
		<rect x="214.7" y="247.7" class="st0" width="16.5" height="115.6"/>
		<path class="st0" d="M379.9,313.8h-33c-13.7,0-24.8-11.1-24.8-24.8v-49.5h16.5V289c0,4.6,3.7,8.3,8.3,8.3h33V313.8z"/>
		<path class="st0" d="M165.2,313.8h-33v-16.5h33c4.6,0,8.3-3.7,8.3-8.3v-49.5h16.5V289C189.9,302.7,178.8,313.8,165.2,313.8z"/>
		<rect x="280.8" y="379.9" class="st0" width="16.5" height="16.5"/>
		<rect x="214.7" y="379.9" class="st0" width="16.5" height="16.5"/>
		<rect x="396.4" y="297.3" class="st0" width="16.5" height="16.5"/>
		<rect x="99.1" y="297.3" class="st0" width="16.5" height="16.5"/>
	</g>
	<path class="st0" d="M371.6,107.4c0-12.2-6.6-22.9-16.5-28.6l-2.5-0.1c1.6-3.9,2.5-8.1,2.5-12.6c0-18.2-14.8-33-33-33h-1.2
		C317.2,18.8,304.4,8.3,289,8.3c-15.4,0-28.2,10.6-31.9,24.8h-2.3C251.2,18.8,238.3,8.3,223,8.3S194.8,18.8,191.1,33h-1.2
		c-18.2,0-33,14.8-33,33c0,4.4,0.9,8.7,2.5,12.5l-2.5,0.1c-9.9,5.7-16.5,16.4-16.5,28.6c0,13.4,8,24.8,19.4,30
		c-1.8,3.4-2.8,7.2-2.8,11.3c0,10.8,6.9,20,16.5,23.4l2.3-3.4c-1.4,4.1-2.3,8.5-2.3,13.1c0,22.8,18.5,41.3,41.3,41.3
		s41.3-18.5,41.3-41.3c0,22.8,18.5,41.3,41.3,41.3s41.3-18.5,41.3-41.3c0-3.3-0.5-6.5-1.3-9.7l1.3,0c9.6-3.4,16.5-12.6,16.5-23.4
		c0-4.1-1.1-7.9-2.8-11.3C363.7,132.1,371.6,120.7,371.6,107.4z"/>
	<g>
		<path class="st1" d="M346.8,429.4v16.5h148.6v24.8c0,13.7-11.1,24.8-24.8,24.8H41.3c-13.7,0-24.8-11.1-24.8-24.8v-24.8h148.6
			v-16.5H0v41.3C0,493.5,18.5,512,41.3,512h429.4c22.8,0,41.3-18.5,41.3-41.3v-41.3H346.8z"/>
		<path class="st1" d="M181.7,454.2c0,13.7,11.1,24.8,24.8,24.8h99.1c13.7,0,24.8-11.1,24.8-24.8v-24.8H181.7V454.2z M198.2,445.9
			h115.6v8.3c0,4.6-3.7,8.3-8.3,8.3h-99.1c-4.6,0-8.3-3.7-8.3-8.3V445.9z"/>
		<path class="st1" d="M33,148.6c0-13.7,11.1-24.8,24.8-24.8h57.8v-16.5H57.8c-22.8,0-41.3,18.5-41.3,41.3v264.3H33V148.6z"/>
		<path class="st1" d="M479,148.6v264.3h16.5V148.6c0-22.8-18.5-41.3-41.3-41.3h-57.8v16.5h57.8C467.9,123.9,479,135,479,148.6z"/>
		<path class="st1" d="M49.5,156.9v256h16.5v-256h66.1v-16.5H66.1C57,140.4,49.5,147.8,49.5,156.9z"/>
		<path class="st1" d="M462.5,412.9v-256c0-9.1-7.4-16.5-16.5-16.5h-66.1v16.5h66.1v256H462.5z"/>
		<path class="st1" d="M149.6,141c-0.6,2.5-0.9,5.1-0.9,7.7c0,12,6.5,22.9,16.7,28.7c-0.1,1.4-0.2,2.9-0.2,4.3
			c0,27.3,22.2,49.5,49.5,49.5c17.2,0,32.4-8.8,41.3-22.2c8.9,13.4,24.1,22.2,41.3,22.2c27.3,0,49.5-22.2,49.5-49.5
			c0-1.5-0.1-2.9-0.2-4.3c10.2-5.8,16.7-16.7,16.7-28.7c0-2.6-0.3-5.1-0.9-7.7c10.8-7.7,17.5-20.2,17.5-33.6
			c0-13.3-6.6-25.8-17.3-33.5c0.5-2.5,0.8-5.1,0.8-7.8c0-21-15.9-38.3-36.3-40.8C320.8,10.4,306.1,0,289,0c-13.6,0-25.5,6.7-33,16.8
			C248.5,6.7,236.5,0,223,0c-17.1,0-31.8,10.4-38.1,25.3c-20.4,2.5-36.3,19.7-36.3,40.8c0,2.7,0.3,5.3,0.8,7.8
			c-10.7,7.7-17.3,20.2-17.3,33.5C132.1,120.8,138.8,133.3,149.6,141z M289,16.5c13.7,0,24.8,11.1,24.8,24.8S302.7,66.1,289,66.1
			v16.5c22.3,0,40.3-17.7,41.1-39.8c9.7,3.4,16.7,12.5,16.7,23.3c0,13.7-11.1,24.8-24.8,24.8v16.5c14,0,26.3-7,33.8-17.7
			c4.7,4.6,7.5,11,7.5,17.7c0,9.6-5.7,18.4-14.5,22.5l-7.9,3.6l4,7.7c1.3,2.5,1.9,5,1.9,7.5c0,4.5-1.9,8.5-5,11.5
			c-8-16.6-25-28.1-44.6-28.1v16.5c18.2,0,33,14.8,33,33s-14.8,33-33,33s-33-14.8-33-33V41.3C264.3,27.6,275.4,16.5,289,16.5z
			 M156.1,89.7c7.5,10.7,19.8,17.7,33.8,17.7V90.8c-13.7,0-24.8-11.1-24.8-24.8c0-10.8,7-19.9,16.7-23.3
			c0.8,22.1,18.9,39.8,41.1,39.8V66.1c-13.7,0-24.8-11.1-24.8-24.8s11.1-24.8,24.8-24.8c13.7,0,24.8,11.1,24.8,24.8v140.4
			c0,18.2-14.8,33-33,33s-33-14.8-33-33s14.8-33,33-33v-16.5c-19.6,0-36.6,11.5-44.6,28.1c-3-3-5-7.1-5-11.5c0-2.5,0.6-5,1.9-7.5
			l4-7.7l-7.9-3.6c-8.8-4-14.5-12.8-14.5-22.5C148.6,100.6,151.4,94.3,156.1,89.7z"/>
		<rect x="33" y="462.5" class="st1" width="16.5" height="16.5"/>
		<rect x="66.1" y="462.5" class="st1" width="16.5" height="16.5"/>
		<rect x="99.1" y="462.5" class="st1" width="16.5" height="16.5"/>
	</g>
</g>
</svg>
