<svg xmlns="http://www.w3.org/2000/svg" viewBox="0 0 800 800"><defs><style>.a{fill:#8fbe36;}.b{fill:#333;}</style></defs><title>discussion-02</title><path class="a" d="M400,40a119.93,119.93,0,0,0-66.67,219.67v47H466.67v-47A119.93,119.93,0,0,0,400,40Zm0,146.67A26.67,26.67,0,1,1,426.67,160,26.67,26.67,0,0,1,400,186.67Z"/><path class="b" d="M322.28,341.47a33.12,33.12,0,0,0,31.05,45.2h93.34a33.12,33.12,0,0,0,31.05-45.2A33.27,33.27,0,0,0,460,280H413.33V197.55a40,40,0,1,0-26.66,0V280H340a33.27,33.27,0,0,0-17.72,61.47ZM400,146.67A13.33,13.33,0,1,1,386.67,160,13.33,13.33,0,0,1,400,146.67ZM446.67,360H353.33a6.67,6.67,0,0,1,0-13.33h93.34a6.67,6.67,0,0,1,0,13.33ZM340,306.67H460A6.67,6.67,0,1,1,460,320H340a6.67,6.67,0,1,1,0-13.33Z"/><path class="b" d="M512.4,625.33A39.8,39.8,0,0,0,475.19,600h-8.52V446.67a46.67,46.67,0,0,0-93.34,0v63.4a38.22,38.22,0,0,0-15.06-3.4H345.61a39,39,0,0,0-38.94,38.94v1.06H292.28a39,39,0,0,0-38.95,38.94v1.06h-1.05a39,39,0,0,0-38.95,38.94v30.54a132.66,132.66,0,0,0,11,53l20.21,46.65a106.05,106.05,0,0,1,8.8,42.42V800H280v-1.79a132.49,132.49,0,0,0-11-53L248.8,698.55a105.65,105.65,0,0,1-7.21-24.78l50.13,50.14a40.05,40.05,0,0,0,56.56,0l2.29-2.3a39.63,39.63,0,0,0,11.15-22.46c.53,0,1,.14,1.59.14a38.75,38.75,0,0,0,20.78-6l.82-.51a37.94,37.94,0,0,0,5.17-4.37A50.65,50.65,0,0,0,411.8,700l17.88,4.48,11,33.06L466,729.11l-15.64-47-32.08-8a24.06,24.06,0,0,1-16.82-15.25l-.13-.4a24,24,0,0,1-1.21-7.2l.09-1.77a24.14,24.14,0,0,1,10.89-19c.15-.09.32-.16.47-.25a22.42,22.42,0,0,1,3.47-1.81c.56-.23,1.16-.36,1.73-.55a23.45,23.45,0,0,1,2.63-.79,25.1,25.1,0,0,1,4.72-.46h51.08a13.45,13.45,0,0,1,12.4,8.44l16.3,41.38a40.05,40.05,0,0,1,2.78,14.66v2.93A40.25,40.25,0,0,1,502.45,712L487,742.8a67,67,0,0,0-7,29.79V800h26.67V772.59a40.25,40.25,0,0,1,4.21-17.9l15.41-30.82a67,67,0,0,0,7-29.79v-2.93a66.43,66.43,0,0,0-4.64-24.43ZM420,426.67a20,20,0,0,1,20,20V600h-7l-33-59.44V446.67A20,20,0,0,1,420,426.67ZM333.33,545.61a12.3,12.3,0,0,1,12.28-12.28h12.66A12.3,12.3,0,0,1,369,539.65l35.68,64.23-.09,0c-.46.19-.86.45-1.3.65A48.59,48.59,0,0,0,397,608c-.9.57-1.75,1.18-2.62,1.81a51.67,51.67,0,0,0-4.34,3.59c-.8.73-1.63,1.42-2.39,2.21a51.09,51.09,0,0,0-4.84,5.83l-28.6-38.14-15.81-21.08h0l-2.53-3.39a12.14,12.14,0,0,1-2.47-7.4Zm-1.61,157.15-2.29,2.29a13.31,13.31,0,0,1-18.86,0l-67-67a12.22,12.22,0,0,1-3.6-8.69v-3.78a12.3,12.3,0,0,1,12.28-12.28h3.77a12.16,12.16,0,0,1,8.68,3.6l67,67A13.33,13.33,0,0,1,331.72,702.76Zm38.6-32.33-.27.17a12.32,12.32,0,0,1-15.48-1.53l-4-4-67-67a12.25,12.25,0,0,1-3.59-8.69v-3.78a12.3,12.3,0,0,1,12.28-12.28h14.91a12.3,12.3,0,0,1,9.78,4.88l30.94,41.23,25.2,33.6c.1.13.2.28.29.41,0,.68.25,1.35.32,2a48.39,48.39,0,0,0,1.07,6.73c.1.47.09.95.22,1.4A11.83,11.83,0,0,1,370.32,670.43Z"/><rect class="b" x="386.67" width="26.67" height="26.67"/><rect class="b" x="313.34" y="19.65" width="26.67" height="26.67" transform="translate(27.26 167.72) rotate(-29.99)"/><rect class="b" x="259.64" y="73.34" width="26.67" height="26.67" transform="translate(61.45 279.76) rotate(-60.01)"/><rect class="b" x="240" y="146.67" width="26.67" height="26.67"/><rect class="b" x="259.63" y="220.02" width="26.67" height="26.67" transform="translate(-80.1 167.7) rotate(-29.99)"/><rect class="b" x="513.67" y="219.98" width="26.67" height="26.67" transform="translate(61.49 573.11) rotate(-60.01)"/><rect class="b" x="533.33" y="146.67" width="26.67" height="26.67"/><rect class="b" x="513.68" y="73.35" width="26.67" height="26.67" transform="translate(27.24 275.06) rotate(-29.99)"/><rect class="b" x="459.99" y="19.64" width="26.67" height="26.67" transform="translate(208.16 426.43) rotate(-60.01)"/><polygon class="b" points="800 160 773.33 160 773.33 133.33 746.67 133.33 746.67 160 720 160 720 186.67 746.67 186.67 746.67 213.33 773.33 213.33 773.33 186.67 800 186.67 800 160"/><polygon class="b" points="640 80 666.67 80 666.67 53.33 693.33 53.33 693.33 26.67 666.67 26.67 666.67 0 640 0 640 26.67 613.33 26.67 613.33 53.33 640 53.33 640 80"/><polygon class="b" points="53.33 213.33 26.67 213.33 26.67 240 0 240 0 266.67 26.67 266.67 26.67 293.33 53.33 293.33 53.33 266.67 80 266.67 80 240 53.33 240 53.33 213.33"/><polygon class="b" points="173.33 133.33 173.33 106.67 146.67 106.67 146.67 80 120 80 120 106.67 93.33 106.67 93.33 133.33 120 133.33 120 160 146.67 160 146.67 133.33 173.33 133.33"/><polygon class="b" points="213.33 426.67 213.33 400 240 400 240 373.33 213.33 373.33 213.33 346.67 186.67 346.67 186.67 373.33 160 373.33 160 400 186.67 400 186.67 426.67 213.33 426.67"/><polygon class="b" points="680 280 653.33 280 653.33 306.67 626.67 306.67 626.67 333.33 653.33 333.33 653.33 360 680 360 680 333.33 706.67 333.33 706.67 306.67 680 306.67 680 280"/></svg>