<?xml version="1.0"?>
<svg xmlns="http://www.w3.org/2000/svg" xmlns:xlink="http://www.w3.org/1999/xlink" version="1.1" id="Capa_1" x="0px" y="0px" viewBox="0 0 496 496" style="enable-background:new 0 0 496 496;" xml:space="preserve" width="512px" height="512px" class=""><g><circle style="fill:#8FBE36" cx="248" cy="248" r="144" data-original="#FFA64D" class="active-path" data-old_color="#FFA64D"/><g>
	<path style="fill:#333333;" d="M248,0C111.256,0,0,111.248,0,248s111.256,248,248,248s248-111.248,248-248S384.744,0,248,0z    M248,480C120.072,480,16,375.92,16,248S120.072,16,248,16s232,104.08,232,232S375.928,480,248,480z" data-original="#333333"/>
	<path style="fill:#333333;" d="M248,48C137.72,48,48,137.72,48,248s89.72,200,200,200c26.08,0,51.44-4.944,75.376-14.696   l-6.032-14.816c-13.808,5.616-28.176,9.296-42.856,11.408l2.88-5.04c22.272-38.976,30.744-84.624,24.256-128.984   c8.168-9.144,14.08-20.336,16.744-32.752c28.92,24.184,50.048,56.84,60.016,93.368l4.56,16.712   c-14.448,15.536-31.72,28.728-51.368,38.768l7.28,14.248C406.176,391.832,448,323.536,448,248C448,137.72,358.28,48,248,48z    M430.08,221.616l-5.224-2.984c-38.968-22.272-84.632-30.752-128.984-24.264c-9.144-8.168-20.336-14.072-32.744-16.744   c24.184-28.928,56.84-50.056,93.376-60.016l16.48-4.496C403.144,141.088,423.936,179.008,430.08,221.616z M221.616,65.92   l-2.984,5.232c-0.96,1.68-1.896,3.376-2.8,5.072l14.12,7.528c0.832-1.568,1.696-3.128,2.576-4.672l8.52-14.904   C243.352,64.088,245.664,64,248,64c41.224,0,79.32,13.624,110.024,36.608l-5.736,1.568   c-43.296,11.808-81.552,38.088-108.344,74.032c-12.88,0.72-24.856,4.792-35.064,11.432c-2.768-30.472,2.032-61.136,14.128-89.448   l-14.712-6.28c-14.608,34.2-19.352,71.536-13.96,108.248c-8.16,9.136-14.056,20.32-16.72,32.72   c-28.92-24.184-50.048-56.84-60.016-93.368l-4.496-16.48C141.088,92.864,179.008,72.064,221.616,65.92z M100.608,137.968   l1.568,5.744c11.816,43.304,38.088,81.568,74.032,108.336c0.72,12.856,4.784,24.816,11.392,35.008   c-37.592,3.352-75.632-4.784-108.52-23.576l-14.904-8.52C64.088,252.648,64,250.336,64,248   C64,206.776,77.624,168.68,100.608,137.968z M65.92,274.384l5.224,2.984c30.512,17.44,65.12,26.496,100,26.496   c9.672,0,19.36-0.824,28.992-2.232c9.144,8.168,20.328,14.072,32.736,16.736c-24.184,28.928-56.84,50.056-93.376,60.016   l-16.48,4.496C92.856,354.912,72.064,316.992,65.92,274.384z M263.48,416.92l-8.424,14.744c-2.36,0.088-4.688,0.336-7.056,0.336   c-41.224,0-79.32-13.624-110.024-36.608l5.736-1.568c43.296-11.808,81.552-38.088,108.344-74.032   c12.856-0.72,24.808-4.784,35.008-11.392C290.416,345.976,282.272,384.032,263.48,416.92z M248,304c-30.88,0-56-25.128-56-56   s25.12-56,56-56s56,25.128,56,56S278.88,304,248,304z M395.424,358.152l-1.6-5.864c-11.816-43.304-38.088-81.568-74.032-108.336   c-0.72-12.856-4.784-24.816-11.4-35.008c37.584-3.36,75.632,4.792,108.52,23.584l14.904,8.512c0.096,2.312,0.184,4.624,0.184,6.96   C432,288.656,418.752,326.968,395.424,358.152z" data-original="#333333"/>
</g></g> </svg>
