<?xml version="1.0"?>
<svg xmlns="http://www.w3.org/2000/svg" xmlns:xlink="http://www.w3.org/1999/xlink" version="1.1" id="Capa_1" x="0px" y="0px" viewBox="0 0 496 496" style="enable-background:new 0 0 496 496;" xml:space="preserve" width="512px" height="512px" class=""><g><g>
	<path style="fill:#8FBE36" d="M152,488h-16v-16c0-4.408-3.592-8-8-8H80c-4.408,0-8,3.592-8,8v16H56v-16c0-13.232,10.768-24,24-24   h48c13.232,0,24,10.768,24,24V488z" data-original="#E56565" class="" data-old_color="#E56565"/>
	<path style="fill:#8FBE36" d="M296,488h-16v-16c0-4.408-3.592-8-8-8h-48c-4.408,0-8,3.592-8,8v16h-16v-16   c0-13.232,10.768-24,24-24h48c13.232,0,24,10.768,24,24V488z" data-original="#E56565" class="" data-old_color="#E56565"/>
	<path style="fill:#8FBE36" d="M440,488h-16v-16c0-4.408-3.592-8-8-8h-48c-4.408,0-8,3.592-8,8v16h-16v-16   c0-13.232,10.768-24,24-24h48c13.232,0,24,10.768,24,24V488z" data-original="#E56565" class="" data-old_color="#E56565"/>
	<path style="fill:#8FBE36" d="M152,424h-16v-16c0-4.408-3.592-8-8-8H80c-4.408,0-8,3.592-8,8v16H56v-16c0-13.232,10.768-24,24-24   h48c13.232,0,24,10.768,24,24V424z" data-original="#E56565" class="" data-old_color="#E56565"/>
	<path style="fill:#8FBE36" d="M296,424h-16v-16c0-4.408-3.592-8-8-8h-48c-4.408,0-8,3.592-8,8v16h-16v-16   c0-13.232,10.768-24,24-24h48c13.232,0,24,10.768,24,24V424z" data-original="#E56565" class="" data-old_color="#E56565"/>
	<path style="fill:#8FBE36" d="M440,424h-16v-16c0-4.408-3.592-8-8-8h-48c-4.408,0-8,3.592-8,8v16h-16v-16   c0-13.232,10.768-24,24-24h48c13.232,0,24,10.768,24,24V424z" data-original="#E56565" class="" data-old_color="#E56565"/>
</g><circle style="fill:#8FBE36" cx="248" cy="176" r="104" data-original="#FFCB57" class="" data-old_color="#FFCB57"/><g>
	<path style="fill:#333333" d="M472,0H24C10.768,0,0,10.768,0,24v344h80v-8c0-30.16-13.112-65.976-16-73.504v-27.808   c9.128-12.72,46.752-75.4,47.936-242.688h272.128c1.184,167.288,38.808,229.968,47.936,242.688v27.808   c-2.888,7.528-16,43.344-16,73.504v8h80V24C496,10.768,485.232,0,472,0z M16,264h32v16H16V264z M16,352v-56h34.44   c3.648,10.168,11.528,34.16,13.232,56H16z M51.904,248H16V24c0-4.408,3.592-8,8-8h71.936C94.792,173.104,60.568,234.904,51.904,248   z M472,16c4.408,0,8,3.592,8,8v224h-35.904c-8.712-13.192-42.896-75.008-44.04-232H472z M480,264v16h-32v-16H480z M432.328,352   c1.696-21.84,9.584-45.832,13.232-56H480v56H432.328z" data-original="#3F3A34" class="active-path" data-old_color="#3F3A34"/>
	<rect x="40" y="480" style="fill:#333333" width="128" height="16" data-original="#3F3A34" class="active-path" data-old_color="#3F3A34"/>
	<rect x="184" y="480" style="fill:#333333" width="128" height="16" data-original="#3F3A34" class="active-path" data-old_color="#3F3A34"/>
	<rect x="328" y="480" style="fill:#333333" width="128" height="16" data-original="#3F3A34" class="active-path" data-old_color="#3F3A34"/>
	<rect x="40" y="416" style="fill:#333333" width="128" height="16" data-original="#3F3A34" class="active-path" data-old_color="#3F3A34"/>
	<rect x="184" y="416" style="fill:#333333" width="128" height="16" data-original="#3F3A34" class="active-path" data-old_color="#3F3A34"/>
	<rect x="328" y="416" style="fill:#333333" width="128" height="16" data-original="#3F3A34" class="active-path" data-old_color="#3F3A34"/>
	<rect x="96" y="336" style="fill:#333333" width="304" height="16" data-original="#3F3A34" class="active-path" data-old_color="#3F3A34"/>
	<path style="fill:#333333" d="M360,176c0-61.76-50.24-112-112-112s-112,50.24-112,112s50.24,112,112,112S360,237.76,360,176z    M152,176c0-52.936,43.064-96,96-96s96,43.064,96,96s-43.064,96-96,96S152,228.936,152,176z" data-original="#3F3A34" class="active-path" data-old_color="#3F3A34"/>
	<path style="fill:#333333" d="M208,113.872v124.256L311.552,176L208,113.872z M224,142.128L280.448,176L224,209.872V142.128z" data-original="#3F3A34" class="active-path" data-old_color="#3F3A34"/>
	<rect x="448" y="32" style="fill:#333333" width="16" height="16" data-original="#3F3A34" class="active-path" data-old_color="#3F3A34"/>
	<rect x="448" y="64" style="fill:#333333" width="16" height="48" data-original="#3F3A34" class="active-path" data-old_color="#3F3A34"/>
	<rect x="32" y="80" style="fill:#333333" width="16" height="16" data-original="#3F3A34" class="active-path" data-old_color="#3F3A34"/>
	<rect x="32" y="112" style="fill:#333333" width="16" height="48" data-original="#3F3A34" class="active-path" data-old_color="#3F3A34"/>
</g></g> </svg>
