<?xml version="1.0"?>
<svg xmlns="http://www.w3.org/2000/svg" xmlns:xlink="http://www.w3.org/1999/xlink" version="1.1" id="Capa_1" x="0px" y="0px" viewBox="0 0 496 496" style="enable-background:new 0 0 496 496;" xml:space="preserve" width="512px" height="512px" class=""><g><g>
	<path style="fill:#F5A205" d="M112,132.944V27.056L217.888,80L112,132.944z" data-original="#F0BC5E" class="active-path" data-old_color="#F0BC5E"/>
	<path style="fill:#F5A205" d="M448,184h-96v-80h96V184z" data-original="#F0BC5E" class="active-path" data-old_color="#F0BC5E"/>
	<path style="fill:#F5A205" d="M448,344h-96v-80h96V344z" data-original="#F0BC5E" class="active-path" data-old_color="#F0BC5E"/>
</g><path d="M456,64H280V0H40v64C17.944,64,0,81.944,0,104v304c0,22.056,17.944,40,40,40h96v32h-32v16h288v-16h-32v-32h96  c22.056,0,40-17.944,40-40V104C496,81.944,478.056,64,456,64z M480,104v264H320V80h136C469.232,80,480,90.768,480,104z M264,16v128  H56V16H264z M56,160h208v80H56V160z M40,80v176h240V80h24v288H16V104C16,90.768,26.768,80,40,80z M344,480H152v-32h192V480z   M456,432H40c-13.232,0-24-10.768-24-24v-24h464v24C480,421.232,469.232,432,456,432z" data-original="#000000" class="" style="fill:#000000"/><polygon points="176,176 160,176 160,192 72,192 72,208 160,208 160,224 176,224 176,208 248,208 248,192 176,192 " data-original="#000000" class="" style="fill:#000000"/><rect x="352" y="200" width="96" height="16" data-original="#000000" class="" style="fill:#000000"/><rect x="432" y="232" width="16" height="16" data-original="#000000" class="" style="fill:#000000"/><rect x="352" y="232" width="64" height="16" data-original="#000000" class="" style="fill:#000000"/><rect x="40" y="272" width="240" height="16" data-original="#000000" class="" style="fill:#000000"/><rect x="264" y="336" width="16" height="16" data-original="#000000" class="" style="fill:#000000"/><rect x="40" y="336" width="208" height="16" data-original="#000000" class="" style="fill:#000000"/><polygon points="152,320 152,304 74.288,304 40,304 40,320 74.288,320 " data-original="#000000" class="" style="fill:#000000"/><rect x="168" y="304" width="112" height="16" data-original="#000000" class="" style="fill:#000000"/><rect x="32" y="400" width="16" height="16" data-original="#000000" class="" style="fill:#000000"/><rect x="64" y="400" width="16" height="16" data-original="#000000" class="" style="fill:#000000"/><rect x="96" y="400" width="16" height="16" data-original="#000000" class="" style="fill:#000000"/></g> </svg>
