<?xml version="1.0"?>
<svg xmlns="http://www.w3.org/2000/svg" xmlns:xlink="http://www.w3.org/1999/xlink" version="1.1" id="Capa_1" x="0px" y="0px" viewBox="0 0 496 496" style="enable-background:new 0 0 496 496;" xml:space="preserve" width="512px" height="512px" class=""><g><g>
	<rect x="72" y="120" style="fill:#F5A205" width="128" height="96" data-original="#FFCB57" class="" data-old_color="#FFCB57"/>
	<circle style="fill:#F5A205" cx="328" cy="264" r="48" data-original="#FFCB57" class="" data-old_color="#FFCB57"/>
</g><g>
	<rect x="64" y="240" style="fill:#F5A205" width="144" height="16" data-original="#E56565" class="" data-old_color="#E56565"/>
	<rect x="96" y="272" style="fill:#F5A205" width="112" height="16" data-original="#E56565" class="" data-old_color="#E56565"/>
	<rect x="64" y="272" style="fill:#F5A205" width="16" height="16" data-original="#E56565" class="" data-old_color="#E56565"/>
	<rect x="192" y="304" style="fill:#F5A205" width="16" height="16" data-original="#E56565" class="" data-old_color="#E56565"/>
	<rect x="64" y="304" style="fill:#F5A205" width="112" height="16" data-original="#E56565" class="" data-old_color="#E56565"/>
	<rect x="256" y="112" style="fill:#F5A205" width="144" height="16" data-original="#E56565" class="" data-old_color="#E56565"/>
	<rect x="288" y="144" style="fill:#F5A205" width="112" height="16" data-original="#E56565" class="" data-old_color="#E56565"/>
	<rect x="256" y="144" style="fill:#F5A205" width="16" height="16" data-original="#E56565" class="" data-old_color="#E56565"/>
	<rect x="384" y="176" style="fill:#F5A205" width="16" height="16" data-original="#E56565" class="" data-old_color="#E56565"/>
	<rect x="256" y="176" style="fill:#F5A205" width="112" height="16" data-original="#E56565" class="" data-old_color="#E56565"/>
</g><g>
	<path style="fill:#333333" d="M456,0H248c-22.056,0-40,17.944-40,40v24h8h8h256v336h16V40C496,17.944,478.056,0,456,0z M224,48v-8   c0-13.232,10.768-24,24-24h208c13.232,0,24,10.768,24,24v8H224z" data-original="#3F3A34" class="active-path" data-old_color="#3F3A34"/>
	<path style="fill:#333333" d="M208,456c0,22.056,17.944,40,40,40h208c22.056,0,40-17.944,40-40v-40H208V456z M224,432h256v24   c0,13.232-10.768,24-24,24H248c-13.232,0-24-10.768-24-24V432z" data-original="#3F3A34" class="active-path" data-old_color="#3F3A34"/>
	<rect x="312" y="448" style="fill:#333333" width="80" height="16" data-original="#3F3A34" class="active-path" data-old_color="#3F3A34"/>
	<path style="fill:#333333" d="M263.832,384H464V96h-16v272H254.96l-2.312,3.976C248.264,379.504,240.544,384,232,384   s-16.264-4.496-20.648-12.024L209.04,368H16V96H0v288h200.168c7.512,9.968,19.328,16,31.832,16S256.32,393.968,263.832,384z" data-original="#3F3A34" class="active-path" data-old_color="#3F3A34"/>
	<path style="fill:#333333" d="M432,80H32v272h400V80z M48,96h176v240H48V96z M416,336H240V96h176V336z" data-original="#3F3A34" class="active-path" data-old_color="#3F3A34"/>
	<path style="fill:#333333" d="M64,112v112h144V112H64z M192,208H80v-80h112V208z" data-original="#3F3A34" class="active-path" data-old_color="#3F3A34"/>
	<path style="fill:#333333" d="M328,320c30.872,0,56-25.128,56-56s-25.128-56-56-56s-56,25.128-56,56S297.128,320,328,320z    M328,224c22.056,0,40,17.944,40,40s-17.944,40-40,40s-40-17.944-40-40S305.944,224,328,224z" data-original="#3F3A34" class="active-path" data-old_color="#3F3A34"/>
</g></g> </svg>
