<?xml version="1.0"?>
<svg xmlns="http://www.w3.org/2000/svg" xmlns:xlink="http://www.w3.org/1999/xlink" version="1.1" id="Layer_1" x="0px" y="0px" viewBox="0 0 500.496 500.496" style="enable-background:new 0 0 500.496 500.496;" xml:space="preserve" width="512px" height="512px" class=""><g><g>
	<polygon style="fill:#F5A205" points="18.248,226.248 186.248,226.248 186.248,194.248 10.248,194.248  " data-original="#F9BA48" class="active-path" data-old_color="#F9BA48"/>
	<polygon style="fill:#F5A205" points="482.248,226.248 314.248,226.248 314.248,194.248 490.248,194.248  " data-original="#F9BA48" class="active-path" data-old_color="#F9BA48"/>
	<polygon style="fill:#F5A205" points="170.248,194.248 250.248,122.248 330.248,194.248  " data-original="#F9BA48" class="active-path" data-old_color="#F9BA48"/>
	<rect x="10.248" y="330.248" style="fill:#F5A205" width="480" height="64" data-original="#F9BA48" class="active-path" data-old_color="#F9BA48"/>
</g><g>
	<path style="fill:#333333" d="M482.248,234.248h6.248l12-48h-10.248v-40h-120v-16h-16v16h-32v-32h-64v-16h-16v16h-64v32h-32v-16   h-16v16h-112v40H0l12,48h6.248v88h-16v80h496v-80h-16V234.248z M450.248,322.248v-40h16v40H450.248z M282.248,362.248v24h-64v-24   h-16v24h-24v-48h144v48h-24v-24H282.248z M24.496,218.248l-4-16h157.752v16H24.496z M250.248,133.016l59.152,53.232H191.096   L250.248,133.016z M480,202.248l-4,16H322.248v-16H480z M282.248,322.248v-88h24v88H282.248z M114.248,234.248v32h-16v-32H114.248z    M130.248,234.248h16v32h-16V234.248z M162.248,234.248h16v32h-16V234.248z M178.248,282.248v40h-16v-40H178.248z M194.248,234.248   h24v88h-24V234.248z M306.248,202.248v16h-112v-16H306.248z M234.248,234.248h32v88h-32V234.248z M322.248,282.248h16v40h-16   V282.248z M322.248,266.248v-32h16v32H322.248z M354.248,234.248h16v32h-16V234.248z M386.248,234.248h16v32h-16V234.248z    M418.248,234.248h16v32h-16V234.248z M82.248,234.248v32h-16v-32H82.248z M82.248,282.248v40h-16v-40H82.248z M98.248,282.248h16   v40h-16V282.248z M130.248,282.248h16v40h-16V282.248z M354.248,282.248h16v40h-16V282.248z M386.248,282.248h16v40h-16V282.248z    M418.248,282.248h16v40h-16V282.248z M466.248,266.248h-16v-32h16V266.248z M474.248,186.248H333.32l-26.664-24h167.592V186.248z    M306.248,146.248h-17.376l-17.776-16h35.152V146.248z M194.248,130.248H229.4l-17.776,16h-17.376V130.248z M34.248,162.248h159.6   l-26.664,24H34.248V162.248z M50.248,234.248v32h-16v-32H50.248z M34.248,282.248h16v40h-16V282.248z M18.248,338.248h144v48h-144   V338.248z M482.248,386.248h-144v-48h144V386.248z" data-original="#333333" class="" data-old_color="#333333"/>
	<rect x="130.248" y="354.248" style="fill:#333333" width="16" height="16" data-original="#333333" class="" data-old_color="#333333"/>
	<rect x="98.248" y="354.248" style="fill:#333333" width="16" height="16" data-original="#333333" class="" data-old_color="#333333"/>
	<rect x="66.248" y="354.248" style="fill:#333333" width="16" height="16" data-original="#333333" class="" data-old_color="#333333"/>
	<rect x="34.248" y="354.248" style="fill:#333333" width="16" height="16" data-original="#333333" class="" data-old_color="#333333"/>
	<rect x="450.248" y="354.248" style="fill:#333333" width="16" height="16" data-original="#333333" class="" data-old_color="#333333"/>
	<rect x="418.248" y="354.248" style="fill:#333333" width="16" height="16" data-original="#333333" class="" data-old_color="#333333"/>
	<rect x="386.248" y="354.248" style="fill:#333333" width="16" height="16" data-original="#333333" class="" data-old_color="#333333"/>
	<rect x="354.248" y="354.248" style="fill:#333333" width="16" height="16" data-original="#333333" class="" data-old_color="#333333"/>
	<rect x="242.248" y="146.248" style="fill:#333333" width="16" height="16" data-original="#333333" class="" data-old_color="#333333"/>
</g></g> </svg>
