<?xml version="1.0" encoding="utf-8"?>
<!-- Generator: Adobe Illustrator 22.1.0, SVG Export Plug-In . SVG Version: 6.00 Build 0)  -->
<svg version="1.1" id="Capa_1" xmlns="http://www.w3.org/2000/svg" xmlns:xlink="http://www.w3.org/1999/xlink" x="0px" y="0px"
	 viewBox="0 0 297.3 322.1" style="enable-background:new 0 0 297.3 322.1;" xml:space="preserve">
<style type="text/css">
	.st0{fill:#F5A205;}
	.st1{fill:#333333;}
</style>
<g>
	<path class="st0" d="M264.3,0H33v148.6l74.3,49.5h4.4c9.1-10.1,22.2-16.5,36.9-16.5s27.8,6.4,36.9,16.5h4.4l74.3-49.5L264.3,0
		L264.3,0z"/>
	<path class="st1" d="M297.3,322.1V128.7l-33-33V119l11.8,11.8l-87.7,58.5c-10.8-10.2-24.8-15.9-39.7-15.9l0,0
		c-15.4,0-29.3,6.1-39.7,15.9l-87.7-58.5L33,119V95.7l-33,33V322h297.3V322.1z M148.6,189.9L148.6,189.9c11,0,21.4,4.3,29.2,12.1
		s12.1,18.2,12.1,29.2v8.3c0,4.6-3.7,8.3-8.3,8.3l0,0c-2.2,0-4.3-0.9-5.8-2.4c-1.6-1.6-2.4-3.6-2.4-5.8v-8.3
		c0-13.7-11.1-24.8-24.8-24.8s-24.8,11.1-24.8,24.8S135,256,148.6,256c4.4,0,8.5-1.2,12.1-3.2c1,1.5,2.1,2.9,3.4,4.2
		c4.7,4.7,10.9,7.3,17.5,7.3l0,0c10.5,0,19.5-6.6,23.1-15.9l21.4,19.5l11.1-12.2l-31-28.2c-0.6-8.9-3.2-17.5-7.6-25.1l82.1-54.8
		v147.6L248.5,266l-11.1,12.2l30.2,27.4h-238l63.6-57.9c7.1,23.9,29.2,41.3,55.4,41.3h24.8v-16.5h-24.8c-22.8,0-41.3-18.5-41.3-41.3
		C107.4,208.5,125.9,189.9,148.6,189.9z M156.9,231.2c0,4.6-3.7,8.3-8.3,8.3s-8.3-3.7-8.3-8.3s3.7-8.3,8.3-8.3
		S156.9,226.7,156.9,231.2z M91,227.4l-74.5,67.7V147.6l82.2,54.8C94.3,209.8,91.6,218.3,91,227.4z"/>
	<rect x="66.1" y="66.1" class="st1" width="74.3" height="16.5"/>
	<rect x="156.9" y="66.1" class="st1" width="74.3" height="16.5"/>
	<rect x="66.1" y="33" class="st1" width="165.2" height="16.5"/>
	<rect x="66.1" y="99.1" class="st1" width="165.2" height="16.5"/>
	<rect x="140.4" y="132.1" class="st1" width="16.5" height="16.5"/>
	<rect x="189.9" y="132.1" class="st1" width="16.5" height="16.5"/>
	<rect x="90.8" y="132.1" class="st1" width="16.5" height="16.5"/>
</g>
</svg>
