<?xml version="1.0" encoding="utf-8"?>
<!-- Generator: Adobe Illustrator 22.1.0, SVG Export Plug-In . SVG Version: 6.00 Build 0)  -->
<svg version="1.1" id="Layer_1" xmlns="http://www.w3.org/2000/svg" xmlns:xlink="http://www.w3.org/1999/xlink" x="0px" y="0px"
	 viewBox="0 0 512 512" style="enable-background:new 0 0 512 512;" xml:space="preserve">
<style type="text/css">
	.st0{fill:#333333;}
	.st1{fill:#F5A205;}
</style>
<g>
	<g>
		<rect x="289" y="198.2" class="st0" width="16.5" height="24.8"/>
		<path class="st0" d="M173.4,57.8c-24.5,0-44.8,17.9-48.8,41.3H90.8H51.7C23.2,99.1,0,122.3,0,150.8v68c0,15.9,13,28.9,28.9,28.9
			c4.5,0,8.6-1.1,12.4-2.9v122.6c0,15.9,13,28.9,28.9,28.9c8.1,0,15.4-3.4,20.6-8.7c5.3,5.4,12.6,8.7,20.6,8.7
			c4.5,0,8.6-1.1,12.4-2.9v31.8c0,15.9,13,28.9,28.9,28.9c8.1,0,15.4-3.4,20.6-8.7c5.3,5.4,12.6,8.7,20.6,8.7
			c15.9,0,28.9-13,28.9-28.9h-16.5c0,6.8-5.6,12.4-12.4,12.4c-6.8,0-12.4-5.6-12.4-12.4V313.8h-16.5v111.5c0,6.8-5.6,12.4-12.4,12.4
			c-6.8,0-12.4-5.6-12.4-12.4V276.6v-4.1v-74.3h-16.5v74.3v4.1c0,6.8-5.6,12.4-12.4,12.4c-6.8,0-12.4-5.6-12.4-12.4V256v-47.4
			c0-19.4,15.8-35.2,35.2-35.2h78.3v-16.5h-39.1h-33v-12.7c8.8,7.9,20.3,12.7,33,12.7c27.3,0,49.5-22.2,49.5-49.5
			S200.7,57.8,173.4,57.8z M111.5,305.5c4.5,0,8.6-1.1,12.4-2.9v64.8c0,6.8-5.6,12.4-12.4,12.4c-6.8,0-12.4-5.6-12.4-12.4v-64.8
			C102.9,304.5,107,305.5,111.5,305.5z M82.6,208.6V256v20.6v90.8c0,6.8-5.6,12.4-12.4,12.4c-6.8,0-12.4-5.6-12.4-12.4V218.8v-4.1
			v-74.3H41.3v74.3v4.1c0,6.8-5.6,12.4-12.4,12.4s-12.4-5.6-12.4-12.4v-68c0-19.4,15.8-35.2,35.2-35.2h72.9
			c1.6,9.4,5.8,17.9,12,24.8h-12.7V158C100.3,162.8,82.6,183.7,82.6,208.6z M173.4,140.4c-18.2,0-33-14.8-33-33s14.8-33,33-33
			s33,14.8,33,33S191.6,140.4,173.4,140.4z"/>
		<rect x="206.5" y="198.2" class="st0" width="16.5" height="24.8"/>
		<path class="st0" d="M140.4,49.5C140.4,22.2,118.2,0,90.8,0S41.3,22.2,41.3,49.5s22.2,49.5,49.5,49.5S140.4,76.9,140.4,49.5z
			 M90.8,82.6c-18.2,0-33-14.8-33-33s14.8-33,33-33s33,14.8,33,33S109.1,82.6,90.8,82.6z"/>
		<path class="st0" d="M470.7,49.5c0-27.3-22.2-49.5-49.5-49.5c-27.3,0-49.5,22.2-49.5,49.5s22.2,49.5,49.5,49.5
			C448.5,99.1,470.7,76.9,470.7,49.5z M421.2,82.6c-18.2,0-33-14.8-33-33s14.8-33,33-33c18.2,0,33,14.8,33,33S439.4,82.6,421.2,82.6
			z"/>
		<path class="st0" d="M460.3,99.1h-39.1h-33.8c-3.9-23.4-24.3-41.3-48.8-41.3c-27.3,0-49.5,22.2-49.5,49.5s22.2,49.5,49.5,49.5
			c12.7,0,24.3-4.8,33-12.7v12.7h-33h-39.1v16.5h78.3c19.4,0,35.2,15.8,35.2,35.2V256v20.6c0,6.8-5.6,12.4-12.4,12.4
			s-12.4-5.6-12.4-12.4v-4.1v-74.3h-16.5v74.3v4.1v148.6c0,6.8-5.6,12.4-12.4,12.4s-12.4-5.6-12.4-12.4V313.8h-16.5v111.5
			c0,6.8-5.6,12.4-12.4,12.4c-6.8,0-12.4-5.6-12.4-12.4H289c0,15.9,13,28.9,28.9,28.9c8.1,0,15.4-3.4,20.6-8.7
			c5.3,5.4,12.6,8.7,20.6,8.7c15.9,0,28.9-13,28.9-28.9v-31.8c3.8,1.8,7.9,2.9,12.4,2.9c8.1,0,15.4-3.4,20.6-8.7
			c5.3,5.4,12.6,8.7,20.6,8.7c15.9,0,28.9-13,28.9-28.9V244.8c3.8,1.8,7.9,2.9,12.4,2.9c15.9,0,28.9-13,28.9-28.9v-68
			C512,122.3,488.8,99.1,460.3,99.1z M338.6,140.4c-18.2,0-33-14.8-33-33s14.8-33,33-33c18.2,0,33,14.8,33,33
			S356.8,140.4,338.6,140.4z M400.5,379.9c-6.8,0-12.4-5.6-12.4-12.4v-64.8c3.8,1.8,7.9,2.9,12.4,2.9s8.6-1.1,12.4-2.9v64.8
			C412.9,374.3,407.3,379.9,400.5,379.9z M495.5,218.8c0,6.8-5.6,12.4-12.4,12.4c-6.8,0-12.4-5.6-12.4-12.4v-4.1v-74.3h-16.5v74.3
			v4.1v148.6c0,6.8-5.6,12.4-12.4,12.4c-6.8,0-12.4-5.6-12.4-12.4v-90.8V256v-47.4c0-24.9-17.8-45.8-41.3-50.6v-17.6h-12.7
			c6.1-6.8,10.4-15.3,12-24.8h72.9c19.4,0,35.2,15.8,35.2,35.2L495.5,218.8L495.5,218.8z"/>
	</g>
	<g>
		<path class="st1" d="M305.5,165.2c0-27.3-22.2-49.5-49.5-49.5c-27.3,0-49.5,22.2-49.5,49.5s22.2,49.5,49.5,49.5
			C283.3,214.7,305.5,192.5,305.5,165.2z"/>
		<path class="st1" d="M295.1,214.7H256h-39.1c-28.5,0-51.7,23.2-51.7,51.7v68c0,15.9,13,28.9,28.9,28.9c4.5,0,8.6-1.1,12.4-2.9
			v122.6c0,15.9,13,28.9,28.9,28.9c8.1,0,15.4-3.4,20.6-8.7c5.3,5.4,12.6,8.7,20.6,8.7c15.9,0,28.9-13,28.9-28.9V360.5
			c3.8,1.8,7.9,2.9,12.4,2.9c15.9,0,28.9-13,28.9-28.9v-68C346.8,237.9,323.6,214.7,295.1,214.7z"/>
	</g>
</g>
</svg>
