<svg xmlns="http://www.w3.org/2000/svg" viewBox="0 0 800 796.4"><defs><style>.a{fill:#333;}.b{fill:#fc315a;}</style></defs><title>lab</title><path class="a" d="M389,372.51V244.06H114.69L34.41,308.29l80.28,64.22Zm-256.9-25.69V321.13H363.26v25.69Zm231.21-51.38H132.05V269.75H363.26Zm-256.9-11.82v49.32L75.54,308.29Z"/><path class="a" d="M171.38,526.65H389V398.2H171.38L62.27,384.56,0,462.43,62.29,540.3ZM363.26,501H234.81V423.89H209.12V501H183.43V423.8l179.83.09ZM73.37,411.84l84.37,10.55v80.17L73.37,513,43.16,475.27H57.34a38.54,38.54,0,1,0,0-25.69H43.16Zm7.3,50.59a12.85,12.85,0,1,1,12.84,12.84A12.85,12.85,0,0,1,80.67,462.43Z"/><polygon class="a" points="29.29 732.18 29.29 590.88 54.98 590.88 54.98 629.42 80.67 629.42 80.67 590.88 106.36 590.88 106.36 642.26 132.05 642.26 132.05 590.88 157.74 590.88 157.74 629.42 183.43 629.42 183.43 590.88 209.12 590.88 209.12 642.26 234.81 642.26 234.81 590.88 260.5 590.88 260.5 629.42 286.19 629.42 286.19 590.88 311.88 590.88 311.88 642.26 337.57 642.26 337.57 590.88 376.11 590.88 376.11 565.19 3.6 565.19 3.6 757.87 466.02 757.87 466.02 732.18 29.29 732.18"/><path class="b" d="M581.63,796.4c-120.41,0-218.37-97.95-218.37-218.37v-334a38.58,38.58,0,0,1,38.54-38.54H761.46A38.58,38.58,0,0,1,800,244.06V578C800,698.45,702,796.4,581.63,796.4Z"/><polygon class="a" points="594.48 372.51 594.48 256.9 568.79 256.9 568.79 372.51 363.26 372.51 363.26 398.2 800 398.2 800 372.51 594.48 372.51"/><path class="a" d="M607.32,154.14H594.48V38.54A38.58,38.58,0,0,0,555.94,0H247.66a38.58,38.58,0,0,0-38.54,38.54V141.3a12.84,12.84,0,0,1-12.85,12.84H80.67V128.45A38.58,38.58,0,0,0,42.13,89.92H3.6V244.06H42.13a38.58,38.58,0,0,0,38.54-38.54V179.83h115.6a38.58,38.58,0,0,0,38.54-38.53V38.54a12.86,12.86,0,0,1,12.85-12.85H555.94a12.86,12.86,0,0,1,12.85,12.85v115.6H555.94a38.54,38.54,0,0,0,0,77.07h51.38a38.54,38.54,0,1,0,0-77.07ZM55,205.52a12.86,12.86,0,0,1-12.85,12.85H29.29V115.61H42.13A12.85,12.85,0,0,1,55,128.45Zm552.34,0H555.94a12.85,12.85,0,0,1,0-25.69h51.38a12.85,12.85,0,1,1,0,25.69Z"/></svg>