<svg xmlns="http://www.w3.org/2000/svg" viewBox="0 0 500 500"><defs><style>.a{fill:#fc315a;}.b{fill:#333;}</style></defs><title>workbook</title><rect class="a" x="80" y="350" width="140" height="50"/><rect class="a" x="280" y="210" width="140" height="80"/><path class="b" d="M60,180H240V420H60ZM500,500V200H460V160H40v40H0V500ZM20,480V220H40V440H460V220h20V480Zm420-60H260V180H440Z"/><polygon class="b" points="80 200 80 290 120 290 120 270 100 270 100 220 200 220 200 270 180 270 180 290 220 290 220 200 80 200"/><rect class="b" x="80" y="340" width="140" height="20"/><rect class="b" x="200" y="380" width="20" height="20"/><rect class="b" x="80" y="380" width="100" height="20"/><rect class="b" x="280" y="200" width="140" height="20"/><rect class="b" x="400" y="240" width="20" height="20"/><rect class="b" x="280" y="240" width="100" height="20"/><rect class="b" x="280" y="280" width="140" height="20"/><path class="a" d="M400,400H300V320H400Z"/><path class="a" d="M110,326.18V233.82L202.36,280Z"/><rect class="b" x="331.88" y="56" width="32.03" height="16"/><path class="b" d="M196.19,167.33V80a7.79,7.79,0,1,1,15.58,0v32c0,14.86,10.11,27.9,24,30.86a27.26,27.26,0,0,0,8,1,29.54,29.54,0,0,0,8-1c13.91-3,24-16,24-30.86V80a8,8,0,0,1,8-8H300.4a64.09,64.09,0,0,0,63.5,56h48a64,64,0,1,0,0-128h-48a64.09,64.09,0,0,0-63.5,56H283.83a24,24,0,0,0-24,24v32a16,16,0,0,1-32,0V80A24,24,0,0,0,204.2,56h-.44a24,24,0,0,0-23.58,24v87.33ZM379.92,112h-16a48,48,0,1,1,0-96h16Zm32,0h-16V16h16a48,48,0,1,1,0,96Z"/></svg>