<svg xmlns="http://www.w3.org/2000/svg" viewBox="0 0 64 64"><title>icon-chat</title><path d="M32,0A32,32,0,1,0,64,32,32,32,0,0,0,32,0Z" style="fill:#ea4335"/><path d="M48,23a6,6,0,0,0-6-6H28a6,6,0,0,0-6,6v8a6,6,0,0,0,6,6H39.93l6.2,4.67a1.07,1.07,0,0,0,1.4.27A.86.86,0,0,0,48,41s0-9.69,0-10ZM28,35a4,4,0,0,1-4-4V23a4,4,0,0,1,4-4H42a4,4,0,0,1,4,4V39.44l-5.12-4A1,1,0,0,0,39.66,35" style="fill:#fff"/><path d="M31,24a3,3,0,1,0,3,3A3,3,0,0,0,31,24Zm0,4a1,1,0,1,1,1-1A1,1,0,0,1,31,28Z" style="fill:#fff"/><path d="M39,24a3,3,0,1,0,3,3A3,3,0,0,0,39,24Zm0,4a1,1,0,1,1,1-1A1,1,0,0,1,39,28Z" style="fill:#fff"/><path d="M34,37a4,4,0,0,1-4,3.91H24.34v0a1,1,0,0,0-1.22.42l-5.12,4V33a4,4,0,0,1,4-4V28a5.55,5.55,0,0,1,.09-1H22a6,6,0,0,0-6,6v4c0,.34,0,10,0,10a.85.85,0,0,0,.46.9,1,1,0,0,0,1.4-.27l6.2-4.64H30A6,6,0,0,0,36,37Z" style="fill:#fff"/></svg>